<?xml version="1.0" encoding="utf-8"?>
<!-- Generator: Adobe Illustrator 27.0.0, SVG Export Plug-In . SVG Version: 6.00 Build 0)  -->
<svg version="1.1" id="Laag_1" xmlns="http://www.w3.org/2000/svg" xmlns:xlink="http://www.w3.org/1999/xlink" x="0px" y="0px"
	 viewBox="0 0 267 72.9" style="enable-background:new 0 0 267 72.9;" xml:space="preserve">
<style type="text/css">
	.st0{opacity:0.7;fill:#0484C0;}
	.st1{opacity:0.7;fill:#61CBF0;}
	.st2{opacity:0.7;fill:#5A80BB;}
	.st3{fill:#FFFFFF;}
</style>
<path class="st0" d="M38.2,44.9c-11.9,0-23.7,0-35.6,0C1.7,32.5,0.9,20.1,0,7.7C14.5,5.1,28.9,2.6,43.4,0C41.7,15,40,29.9,38.2,44.9
	z"/>
<path class="st1" d="M45.2,72.9c-11.5-0.7-23-1.4-34.6-2.1C9.4,57.1,8.2,43.4,7,29.7c12.5-1.2,25.1-2.5,37.6-3.7
	C44.8,41.6,45,57.3,45.2,72.9z"/>
<path class="st2" d="M53.2,55C42.1,54.7,31,54.3,20,54V8.1c12.2,0.2,24.4,0.4,36.6,0.6C55.4,24.1,54.3,39.6,53.2,55z"/>
<g>
	<g>
		<path class="st3" d="M23,30.4c1.4,0.5,2.9,1,4.3,1.5c-0.7,1.3-1.4,2.6-2.2,4l-1.9,3.4l-5.9,1.1l-1.1,1.9l5.9,1.8l4.6,4.2l1.1-1.9
			l-2-5.6l1.9-3.4c0.8-1.3,1.5-2.6,2.3-3.9c1.2,1,2.3,2,3.5,3c0.5,0.6,0.9,1.1,1.4,1.7l4.8,5.8l1-1.7L37,34.5l0.5-0.9
			c0.4-0.7,0.7-1.2,0.9-1.7c0.2-0.4,0.4-0.8,0.2-1.1c-0.1-0.2-0.3-0.3-0.4-0.3c-0.6-0.2-1.1,0.3-1.2,0.3c-0.4,0.5-0.7,1-1.1,1.4
			l-2.4-5l2.6-4.6c0.4-0.7,1.2-3.4,0.4-3.8c-0.7-0.4-2.7,1.6-3.1,2.3l-2.6,4.6l-5.5,0.5c0.4-0.8,1.2-2.6,0.8-2.8
			c-0.1,0-0.4-0.3-0.9-0.2c-0.5,0.1-0.7,0.5-0.7,0.5c-0.4,0.6-0.8,1.2-1.2,1.8l-0.5,0.9l-8.6,0.8l-1,1.7l7.5,1.2
			C21.6,30.2,22.3,30.3,23,30.4z"/>
	</g>
</g>
<g>
	<path class="st3" d="M75.6,12.4c1.1-0.2,2.8-0.4,4.6-0.4c2.5,0,4.1,0.4,5.4,1.4c1,0.8,1.6,1.9,1.6,3.5c0,1.9-1.2,3.5-3.3,4.3v0.1
		c1.9,0.5,4,2,4,4.9c0,1.7-0.7,3-1.7,3.9c-1.4,1.2-3.6,1.8-6.8,1.8c-1.7,0-3.1-0.1-3.9-0.2V12.4z M78.1,20.4h2.3
		c2.7,0,4.2-1.4,4.2-3.3c0-2.3-1.7-3.2-4.3-3.2c-1.2,0-1.8,0.1-2.2,0.2V20.4z M78.1,29.7c0.5,0.1,1.2,0.1,2.1,0.1c2.6,0,5-1,5-3.8
		c0-2.7-2.3-3.8-5-3.8h-2.1V29.7z"/>
	<path class="st3" d="M92.7,25.1c0.1,3.5,2.3,4.9,4.8,4.9c1.8,0,2.9-0.3,3.9-0.7l0.4,1.8c-0.9,0.4-2.4,0.9-4.7,0.9
		c-4.3,0-6.9-2.8-6.9-7.1s2.5-7.6,6.6-7.6c4.6,0,5.8,4,5.8,6.6c0,0.5-0.1,0.9-0.1,1.2H92.7z M100.2,23.3c0-1.6-0.7-4.1-3.5-4.1
		c-2.6,0-3.7,2.4-3.9,4.1H100.2z"/>
	<path class="st3" d="M105.5,29c0.8,0.5,2.1,1,3.4,1c1.9,0,2.7-0.9,2.7-2.1c0-1.2-0.7-1.9-2.6-2.6c-2.5-0.9-3.7-2.3-3.7-4
		c0-2.3,1.8-4.1,4.8-4.1c1.4,0,2.7,0.4,3.5,0.9l-0.6,1.9c-0.6-0.3-1.6-0.8-2.9-0.8c-1.5,0-2.3,0.9-2.3,1.9c0,1.2,0.8,1.7,2.7,2.4
		c2.4,0.9,3.7,2.1,3.7,4.2c0,2.5-1.9,4.2-5.3,4.2c-1.5,0-3-0.4-3.9-1L105.5,29z"/>
	<path class="st3" d="M120.4,13.6v4h3.7v1.9h-3.7v7.6c0,1.7,0.5,2.7,1.9,2.7c0.7,0,1.2-0.1,1.5-0.2l0.1,1.9
		c-0.5,0.2-1.3,0.3-2.3,0.3c-1.2,0-2.1-0.4-2.8-1.1c-0.7-0.8-1-2-1-3.7v-7.7h-2.2v-1.9h2.2v-3.4L120.4,13.6z"/>
	<path class="st3" d="M133.2,12.1h10.5v2.1h-8v6.5h7.4v2.1h-7.4v8.8h-2.5V12.1z"/>
	<path class="st3" d="M146.7,11.1h2.6v20.6h-2.6V11.1z"/>
	<path class="st3" d="M156.4,13.7c0,0.9-0.6,1.6-1.6,1.6c-0.9,0-1.5-0.7-1.5-1.6c0-0.9,0.7-1.6,1.6-1.6
		C155.8,12.1,156.4,12.8,156.4,13.7z M153.5,31.7v-14h2.6v14H153.5z"/>
	<path class="st3" d="M172.4,17.6c-0.1,1-0.1,2.1-0.1,3.9v8.2c0,3.2-0.6,5.2-2,6.4c-1.4,1.3-3.3,1.7-5.1,1.7c-1.7,0-3.5-0.4-4.7-1.2
		l0.6-1.9c0.9,0.6,2.4,1.1,4.1,1.1c2.6,0,4.5-1.4,4.5-4.9v-1.6h-0.1c-0.8,1.3-2.3,2.3-4.5,2.3c-3.5,0-6-3-6-6.8
		c0-4.8,3.1-7.5,6.3-7.5c2.4,0,3.8,1.3,4.4,2.4h0.1l0.1-2.1H172.4z M169.8,23.2c0-0.4,0-0.8-0.1-1.2c-0.5-1.5-1.7-2.7-3.6-2.7
		c-2.4,0-4.2,2.1-4.2,5.3c0,2.8,1.4,5,4.1,5c1.6,0,3-1,3.5-2.6c0.1-0.4,0.2-0.9,0.2-1.4V23.2z"/>
	<path class="st3" d="M176.5,11.1h2.6v8.8h0.1c0.4-0.7,1-1.4,1.8-1.8c0.8-0.4,1.7-0.7,2.6-0.7c1.9,0,4.9,1.2,4.9,6v8.4h-2.6v-8.1
		c0-2.3-0.8-4.2-3.2-4.2c-1.7,0-3,1.2-3.4,2.6c-0.1,0.3-0.2,0.7-0.2,1.2v8.5h-2.6V11.1z"/>
	<path class="st3" d="M195.6,13.6v4h3.7v1.9h-3.7v7.6c0,1.7,0.5,2.7,1.9,2.7c0.7,0,1.2-0.1,1.5-0.2l0.1,1.9
		c-0.5,0.2-1.3,0.3-2.3,0.3c-1.2,0-2.1-0.4-2.8-1.1c-0.7-0.8-1-2-1-3.7v-7.7h-2.2v-1.9h2.2v-3.4L195.6,13.6z"/>
	<path class="st3" d="M208.4,12.1h10.5v2.1h-8v6.5h7.4v2.1h-7.4v8.8h-2.5V12.1z"/>
	<path class="st3" d="M228.9,31.7l-0.2-1.8h-0.1c-0.8,1.1-2.3,2.1-4.3,2.1c-2.8,0-4.3-2-4.3-4c0-3.4,3-5.3,8.4-5.2v-0.3
		c0-1.2-0.3-3.2-3.2-3.2c-1.3,0-2.7,0.4-3.7,1l-0.6-1.7c1.2-0.8,2.8-1.2,4.6-1.2c4.3,0,5.3,2.9,5.3,5.7v5.3c0,1.2,0.1,2.4,0.2,3.4
		H228.9z M228.5,24.5c-2.8-0.1-5.9,0.4-5.9,3.2c0,1.7,1.1,2.4,2.4,2.4c1.8,0,3-1.2,3.4-2.3c0.1-0.3,0.1-0.6,0.1-0.8V24.5z"/>
	<path class="st3" d="M235.1,22c0-1.7,0-3.1-0.1-4.4h2.2l0.1,2.8h0.1c0.6-1.9,2.2-3.1,3.9-3.1c0.3,0,0.5,0,0.7,0.1v2.4
		c-0.3-0.1-0.5-0.1-0.9-0.1c-1.8,0-3.1,1.4-3.4,3.3c-0.1,0.3-0.1,0.8-0.1,1.2v7.5h-2.5V22z"/>
	<path class="st3" d="M245.7,25.1c0.1,3.5,2.3,4.9,4.8,4.9c1.8,0,2.9-0.3,3.9-0.7l0.4,1.8c-0.9,0.4-2.4,0.9-4.7,0.9
		c-4.3,0-6.9-2.8-6.9-7.1s2.5-7.6,6.6-7.6c4.6,0,5.8,4,5.8,6.6c0,0.5-0.1,0.9-0.1,1.2H245.7z M253.2,23.3c0-1.6-0.7-4.1-3.5-4.1
		c-2.6,0-3.7,2.4-3.9,4.1H253.2z"/>
	<path class="st3" d="M258.4,29c0.8,0.5,2.1,1,3.4,1c1.9,0,2.7-0.9,2.7-2.1c0-1.2-0.7-1.9-2.6-2.6c-2.5-0.9-3.7-2.3-3.7-4
		c0-2.3,1.8-4.1,4.8-4.1c1.4,0,2.7,0.4,3.5,0.9l-0.6,1.9c-0.6-0.3-1.6-0.8-2.9-0.8c-1.5,0-2.3,0.9-2.3,1.9c0,1.2,0.8,1.7,2.7,2.4
		c2.4,0.9,3.7,2.1,3.7,4.2c0,2.5-1.9,4.2-5.2,4.2c-1.5,0-3-0.4-3.9-1L258.4,29z"/>
</g>
<g>
	<path class="st3" d="M74.4,40.2h1.2v8.4h4v1h-5.3V40.2z"/>
	<path class="st3" d="M81.8,46.4c0,1.7,1.1,2.4,2.3,2.4c0.9,0,1.4-0.2,1.9-0.3l0.2,0.9c-0.4,0.2-1.2,0.4-2.3,0.4
		c-2.1,0-3.3-1.4-3.3-3.4s1.2-3.7,3.2-3.7c2.2,0,2.8,1.9,2.8,3.2c0,0.3,0,0.4,0,0.6H81.8z M85.4,45.6c0-0.8-0.3-2-1.7-2
		c-1.2,0-1.8,1.1-1.9,2H85.4z"/>
	<path class="st3" d="M89.9,40.9v1.9h1.8v0.9h-1.8v3.7c0,0.8,0.2,1.3,0.9,1.3c0.3,0,0.6,0,0.7-0.1l0.1,0.9c-0.2,0.1-0.6,0.2-1.1,0.2
		c-0.6,0-1-0.2-1.3-0.5c-0.4-0.4-0.5-1-0.5-1.8v-3.7h-1.1v-0.9h1.1v-1.6L89.9,40.9z"/>
	<path class="st3" d="M109,47.8c0,0.7,0,1.3,0.1,1.8h-1.1l-0.1-1.1h0c-0.3,0.5-1,1.3-2.2,1.3c-1.1,0-2.3-0.6-2.3-3v-4h1.2v3.8
		c0,1.3,0.4,2.2,1.5,2.2c0.8,0,1.4-0.6,1.6-1.1c0.1-0.2,0.1-0.4,0.1-0.6v-4.2h1.2V47.8z"/>
	<path class="st3" d="M111.1,48.4c0.4,0.2,1,0.5,1.6,0.5c0.9,0,1.3-0.4,1.3-1c0-0.6-0.4-0.9-1.3-1.2c-1.2-0.4-1.8-1.1-1.8-1.9
		c0-1.1,0.9-2,2.3-2c0.7,0,1.3,0.2,1.7,0.4l-0.3,0.9c-0.3-0.2-0.8-0.4-1.4-0.4c-0.7,0-1.1,0.4-1.1,0.9c0,0.6,0.4,0.8,1.3,1.1
		c1.2,0.4,1.8,1,1.8,2c0,1.2-0.9,2-2.5,2c-0.7,0-1.4-0.2-1.9-0.5L111.1,48.4z"/>
	<path class="st3" d="M126.9,48.4c0.4,0.2,1,0.5,1.6,0.5c0.9,0,1.3-0.4,1.3-1c0-0.6-0.4-0.9-1.3-1.2c-1.2-0.4-1.8-1.1-1.8-1.9
		c0-1.1,0.9-2,2.3-2c0.7,0,1.3,0.2,1.7,0.4l-0.3,0.9c-0.3-0.2-0.8-0.4-1.4-0.4c-0.7,0-1.1,0.4-1.1,0.9c0,0.6,0.4,0.8,1.3,1.1
		c1.2,0.4,1.8,1,1.8,2c0,1.2-0.9,2-2.5,2c-0.7,0-1.4-0.2-1.9-0.5L126.9,48.4z"/>
	<path class="st3" d="M132.9,39.7h1.2v4.2h0c0.2-0.4,0.5-0.7,0.9-0.9c0.4-0.2,0.8-0.4,1.3-0.4c0.9,0,2.4,0.6,2.4,2.9v4h-1.2v-3.9
		c0-1.1-0.4-2-1.6-2c-0.8,0-1.4,0.6-1.7,1.2c-0.1,0.2-0.1,0.4-0.1,0.6v4.1h-1.2V39.7z"/>
	<path class="st3" d="M147.1,46.2c0,2.5-1.7,3.6-3.4,3.6c-1.8,0-3.2-1.3-3.2-3.5c0-2.3,1.5-3.6,3.4-3.6
		C145.8,42.7,147.1,44.1,147.1,46.2z M141.8,46.2c0,1.5,0.9,2.6,2.1,2.6c1.2,0,2.1-1.1,2.1-2.6c0-1.1-0.6-2.6-2-2.6
		C142.4,43.6,141.8,44.9,141.8,46.2z"/>
	<path class="st3" d="M149.4,42.8l0.9,3.4c0.2,0.8,0.4,1.5,0.5,2.2h0c0.2-0.7,0.4-1.4,0.6-2.1l1.1-3.5h1l1.1,3.4
		c0.3,0.8,0.4,1.5,0.6,2.2h0c0.1-0.7,0.3-1.4,0.5-2.2l1-3.4h1.2l-2.2,6.8h-1.1l-1-3.2c-0.2-0.8-0.4-1.4-0.6-2.2h0
		c-0.2,0.8-0.4,1.5-0.6,2.2l-1.1,3.2h-1.1l-2-6.8H149.4z"/>
	<path class="st3" d="M169.9,42.8l1.5,4c0.2,0.4,0.3,1,0.4,1.4h0c0.1-0.4,0.3-0.9,0.4-1.4l1.3-4h1.3l-1.8,4.8
		c-0.9,2.3-1.5,3.5-2.3,4.2c-0.6,0.5-1.2,0.7-1.5,0.8l-0.3-1c0.3-0.1,0.7-0.3,1.1-0.6c0.3-0.3,0.8-0.7,1-1.4
		c0.1-0.1,0.1-0.2,0.1-0.3s0-0.2-0.1-0.3l-2.5-6.2H169.9z"/>
	<path class="st3" d="M182.3,46.2c0,2.5-1.7,3.6-3.4,3.6c-1.8,0-3.2-1.3-3.2-3.5c0-2.3,1.5-3.6,3.4-3.6
		C181,42.7,182.3,44.1,182.3,46.2z M176.9,46.2c0,1.5,0.9,2.6,2.1,2.6c1.2,0,2.1-1.1,2.1-2.6c0-1.1-0.6-2.6-2-2.6
		S176.9,44.9,176.9,46.2z"/>
	<path class="st3" d="M189.9,47.8c0,0.7,0,1.3,0.1,1.8h-1.1l-0.1-1.1h0c-0.3,0.5-1,1.3-2.2,1.3c-1.1,0-2.3-0.6-2.3-3v-4h1.2v3.8
		c0,1.3,0.4,2.2,1.5,2.2c0.8,0,1.4-0.6,1.6-1.1c0.1-0.2,0.1-0.4,0.1-0.6v-4.2h1.2V47.8z"/>
	<path class="st3" d="M203.6,40.9v1.9h1.8v0.9h-1.8v3.7c0,0.8,0.2,1.3,0.9,1.3c0.3,0,0.6,0,0.7-0.1l0.1,0.9
		c-0.2,0.1-0.6,0.2-1.1,0.2c-0.6,0-1-0.2-1.3-0.5c-0.4-0.4-0.5-1-0.5-1.8v-3.7h-1.1v-0.9h1.1v-1.6L203.6,40.9z"/>
	<path class="st3" d="M207.1,39.7h1.2v4.2h0c0.2-0.4,0.5-0.7,0.9-0.9c0.4-0.2,0.8-0.4,1.3-0.4c0.9,0,2.4,0.6,2.4,2.9v4h-1.2v-3.9
		c0-1.1-0.4-2-1.6-2c-0.8,0-1.4,0.6-1.7,1.2c-0.1,0.2-0.1,0.4-0.1,0.6v4.1h-1.2V39.7z"/>
	<path class="st3" d="M215.8,46.4c0,1.7,1.1,2.4,2.3,2.4c0.9,0,1.4-0.2,1.9-0.3l0.2,0.9c-0.4,0.2-1.2,0.4-2.3,0.4
		c-2.1,0-3.3-1.4-3.3-3.4s1.2-3.7,3.2-3.7c2.2,0,2.8,1.9,2.8,3.2c0,0.3,0,0.4,0,0.6H215.8z M219.5,45.6c0-0.8-0.3-2-1.7-2
		c-1.2,0-1.8,1.1-1.9,2H219.5z"/>
	<path class="st3" d="M232.8,42.8l0.9,3.4c0.2,0.8,0.4,1.5,0.5,2.2h0c0.2-0.7,0.4-1.4,0.6-2.1l1.1-3.5h1l1.1,3.4
		c0.3,0.8,0.4,1.5,0.6,2.2h0c0.1-0.7,0.3-1.4,0.5-2.2l1-3.4h1.2l-2.2,6.8h-1.1l-1-3.2c-0.2-0.8-0.4-1.4-0.6-2.2h0
		c-0.2,0.8-0.4,1.5-0.6,2.2l-1.1,3.2h-1.1l-2-6.8H232.8z"/>
	<path class="st3" d="M249,46.2c0,2.5-1.7,3.6-3.4,3.6c-1.8,0-3.2-1.3-3.2-3.5c0-2.3,1.5-3.6,3.4-3.6C247.7,42.7,249,44.1,249,46.2z
		 M243.6,46.2c0,1.5,0.9,2.6,2.1,2.6c1.2,0,2.1-1.1,2.1-2.6c0-1.1-0.6-2.6-2-2.6S243.6,44.9,243.6,46.2z"/>
	<path class="st3" d="M250.9,44.9c0-0.8,0-1.5-0.1-2.1h1.1l0,1.3h0.1c0.3-0.9,1-1.5,1.9-1.5c0.1,0,0.2,0,0.3,0v1.2
		c-0.1,0-0.3,0-0.4,0c-0.9,0-1.5,0.7-1.7,1.6c0,0.2-0.1,0.4-0.1,0.6v3.6h-1.2V44.9z"/>
	<path class="st3" d="M255.8,39.7h1.2v9.9h-1.2V39.7z"/>
	<path class="st3" d="M265.3,39.7v8.2c0,0.6,0,1.3,0.1,1.8h-1.1l-0.1-1.2h0c-0.4,0.8-1.2,1.3-2.3,1.3c-1.6,0-2.9-1.4-2.9-3.4
		c0-2.3,1.4-3.6,3-3.6c1,0,1.7,0.5,2,1h0v-4H265.3z M264.1,45.6c0-0.2,0-0.4-0.1-0.5c-0.2-0.8-0.9-1.4-1.8-1.4c-1.3,0-2,1.1-2,2.6
		c0,1.4,0.7,2.5,2,2.5c0.8,0,1.6-0.5,1.8-1.5c0-0.2,0.1-0.3,0.1-0.5V45.6z"/>
</g>
</svg>
