<?xml version="1.0" encoding="UTF-8"?>
<svg id="Laag_1" data-name="Laag 1" xmlns="http://www.w3.org/2000/svg" xmlns:xlink="http://www.w3.org/1999/xlink" viewBox="0 0 534.18 635.81">
  <defs>
    <style>
      .cls-1 {
        fill: none;
      }

      .cls-2 {
        clip-path: url(#clippath);
      }

      .cls-3 {
        fill: #fff;
      }

      .cls-4 {
        fill: #e84e0f;
      }

      .cls-5 {
        fill: #0e2050;
      }

      .cls-6 {
        fill: #19233e;
      }
    </style>
    <clipPath id="clippath">
      <rect class="cls-1" x="34.47" y="30.41" width="469.9" height="469.9"/>
    </clipPath>
  </defs>
  <rect class="cls-3" width="534.18" height="635.81"/>
  <rect class="cls-3" x="34.47" y="30.41" width="469.9" height="469.9"/>
  <rect class="cls-3" x="34.47" y="30.41" width="469.9" height="469.9"/>
  <g class="cls-2">
    <path class="cls-4" d="M188.15,272.52c3.19,0,5.78-2.59,5.78-5.77s-2.58-5.78-5.78-5.78-5.78,2.59-5.78,5.78,2.59,5.77,5.78,5.77"/>
    <path class="cls-4" d="M228.78,272.52c3.19,0,5.78-2.59,5.78-5.77s-2.58-5.78-5.78-5.78-5.78,2.59-5.78,5.78,2.59,5.77,5.78,5.77"/>
    <path class="cls-4" d="M269.42,272.52c3.19,0,5.78-2.59,5.78-5.77s-2.59-5.78-5.78-5.78-5.78,2.59-5.78,5.78,2.59,5.77,5.78,5.77"/>
    <path class="cls-4" d="M310.05,272.52c3.19,0,5.78-2.59,5.78-5.77s-2.59-5.78-5.78-5.78-5.77,2.59-5.77,5.78,2.59,5.77,5.77,5.77"/>
    <path class="cls-4" d="M350.69,272.52c3.19,0,5.78-2.59,5.78-5.77s-2.58-5.78-5.78-5.78-5.78,2.59-5.78,5.78,2.59,5.77,5.78,5.77"/>
    <path class="cls-4" d="M391.32,272.52c3.19,0,5.78-2.59,5.78-5.77s-2.59-5.78-5.78-5.78-5.78,2.59-5.78,5.78,2.58,5.77,5.78,5.77"/>
    <path class="cls-4" d="M431.96,272.52c3.19,0,5.78-2.59,5.78-5.77s-2.59-5.78-5.78-5.78-5.78,2.59-5.78,5.78,2.59,5.77,5.78,5.77"/>
    <path class="cls-4" d="M472.59,272.52c3.19,0,5.78-2.59,5.78-5.77s-2.59-5.78-5.78-5.78-5.78,2.59-5.78,5.78,2.59,5.77,5.78,5.77"/>
    <path class="cls-4" d="M188.15,231.94c3.19,0,5.78-2.59,5.78-5.78s-2.58-5.78-5.78-5.78-5.78,2.59-5.78,5.78,2.59,5.78,5.78,5.78"/>
    <path class="cls-4" d="M228.78,231.94c3.19,0,5.78-2.59,5.78-5.78s-2.58-5.78-5.78-5.78-5.78,2.59-5.78,5.78,2.59,5.78,5.78,5.78"/>
    <path class="cls-4" d="M269.42,231.94c3.19,0,5.78-2.59,5.78-5.78s-2.59-5.78-5.78-5.78-5.78,2.59-5.78,5.78,2.59,5.78,5.78,5.78"/>
    <path class="cls-4" d="M310.05,231.94c3.19,0,5.78-2.59,5.78-5.78s-2.59-5.78-5.78-5.78-5.77,2.59-5.77,5.78,2.59,5.78,5.77,5.78"/>
    <path class="cls-4" d="M350.69,231.94c3.19,0,5.78-2.59,5.78-5.78s-2.58-5.78-5.78-5.78-5.78,2.59-5.78,5.78,2.59,5.78,5.78,5.78"/>
    <path class="cls-4" d="M391.32,231.94c3.19,0,5.78-2.59,5.78-5.78s-2.59-5.78-5.78-5.78-5.78,2.59-5.78,5.78,2.58,5.78,5.78,5.78"/>
    <path class="cls-4" d="M431.96,231.94c3.19,0,5.78-2.59,5.78-5.78s-2.59-5.78-5.78-5.78-5.78,2.59-5.78,5.78,2.59,5.78,5.78,5.78"/>
    <path class="cls-4" d="M472.59,231.94c3.19,0,5.78-2.59,5.78-5.78s-2.59-5.78-5.78-5.78-5.78,2.59-5.78,5.78,2.59,5.78,5.78,5.78"/>
    <path class="cls-4" d="M188.15,191.36c3.19,0,5.78-2.59,5.78-5.78s-2.58-5.78-5.78-5.78-5.78,2.59-5.78,5.78,2.59,5.78,5.78,5.78"/>
    <path class="cls-4" d="M228.78,191.36c3.19,0,5.78-2.59,5.78-5.78s-2.58-5.78-5.78-5.78-5.78,2.59-5.78,5.78,2.59,5.78,5.78,5.78"/>
    <path class="cls-4" d="M269.42,191.36c3.19,0,5.78-2.59,5.78-5.78s-2.59-5.78-5.78-5.78-5.78,2.59-5.78,5.78,2.59,5.78,5.78,5.78"/>
    <path class="cls-4" d="M310.05,191.36c3.19,0,5.78-2.59,5.78-5.78s-2.59-5.78-5.78-5.78-5.77,2.59-5.77,5.78,2.59,5.78,5.77,5.78"/>
    <path class="cls-4" d="M350.69,191.36c3.19,0,5.78-2.59,5.78-5.78s-2.58-5.78-5.78-5.78-5.78,2.59-5.78,5.78,2.59,5.78,5.78,5.78"/>
    <path class="cls-4" d="M391.32,191.36c3.19,0,5.78-2.59,5.78-5.78s-2.59-5.78-5.78-5.78-5.78,2.59-5.78,5.78,2.58,5.78,5.78,5.78"/>
    <path class="cls-4" d="M431.96,191.36c3.19,0,5.78-2.59,5.78-5.78s-2.59-5.78-5.78-5.78-5.78,2.59-5.78,5.78,2.59,5.78,5.78,5.78"/>
    <path class="cls-4" d="M472.59,191.36c3.19,0,5.78-2.59,5.78-5.78s-2.59-5.78-5.78-5.78-5.78,2.59-5.78,5.78,2.59,5.78,5.78,5.78"/>
    <path class="cls-4" d="M188.15,150.78c3.19,0,5.78-2.59,5.78-5.78s-2.58-5.78-5.78-5.78-5.78,2.59-5.78,5.78,2.59,5.78,5.78,5.78"/>
    <path class="cls-4" d="M228.78,150.78c3.19,0,5.78-2.59,5.78-5.78s-2.58-5.78-5.78-5.78-5.78,2.59-5.78,5.78,2.59,5.78,5.78,5.78"/>
    <path class="cls-4" d="M269.42,150.78c3.19,0,5.78-2.59,5.78-5.78s-2.59-5.78-5.78-5.78-5.78,2.59-5.78,5.78,2.59,5.78,5.78,5.78"/>
    <path class="cls-4" d="M310.05,150.78c3.19,0,5.78-2.59,5.78-5.78s-2.59-5.78-5.78-5.78-5.77,2.59-5.77,5.78,2.59,5.78,5.77,5.78"/>
    <path class="cls-4" d="M350.69,150.78c3.19,0,5.78-2.59,5.78-5.78s-2.58-5.78-5.78-5.78-5.78,2.59-5.78,5.78,2.59,5.78,5.78,5.78"/>
    <path class="cls-4" d="M391.32,150.78c3.19,0,5.78-2.59,5.78-5.78s-2.59-5.78-5.78-5.78-5.78,2.59-5.78,5.78,2.58,5.78,5.78,5.78"/>
    <path class="cls-4" d="M431.96,150.78c3.19,0,5.78-2.59,5.78-5.78s-2.59-5.78-5.78-5.78-5.78,2.59-5.78,5.78,2.59,5.78,5.78,5.78"/>
    <path class="cls-4" d="M472.59,150.78c3.19,0,5.78-2.59,5.78-5.78s-2.59-5.78-5.78-5.78-5.78,2.59-5.78,5.78,2.59,5.78,5.78,5.78"/>
    <path class="cls-4" d="M188.15,110.21c3.19,0,5.78-2.59,5.78-5.78s-2.58-5.78-5.78-5.78-5.78,2.59-5.78,5.78,2.59,5.78,5.78,5.78"/>
    <path class="cls-4" d="M228.78,110.21c3.19,0,5.78-2.59,5.78-5.78s-2.58-5.78-5.78-5.78-5.78,2.59-5.78,5.78,2.59,5.78,5.78,5.78"/>
    <path class="cls-4" d="M269.42,110.21c3.19,0,5.78-2.59,5.78-5.78s-2.59-5.78-5.78-5.78-5.78,2.59-5.78,5.78,2.59,5.78,5.78,5.78"/>
    <path class="cls-4" d="M310.05,110.21c3.19,0,5.78-2.59,5.78-5.78s-2.59-5.78-5.78-5.78-5.77,2.59-5.77,5.78,2.59,5.78,5.77,5.78"/>
    <path class="cls-4" d="M350.69,110.21c3.19,0,5.78-2.59,5.78-5.78s-2.58-5.78-5.78-5.78-5.78,2.59-5.78,5.78,2.59,5.78,5.78,5.78"/>
    <path class="cls-4" d="M391.32,110.21c3.19,0,5.78-2.59,5.78-5.78s-2.59-5.78-5.78-5.78-5.78,2.59-5.78,5.78,2.58,5.78,5.78,5.78"/>
    <path class="cls-4" d="M431.96,110.21c3.19,0,5.78-2.59,5.78-5.78s-2.59-5.78-5.78-5.78-5.78,2.59-5.78,5.78,2.59,5.78,5.78,5.78"/>
    <path class="cls-4" d="M472.59,110.21c3.19,0,5.78-2.59,5.78-5.78s-2.59-5.78-5.78-5.78-5.78,2.59-5.78,5.78,2.59,5.78,5.78,5.78"/>
    <path class="cls-4" d="M188.15,69.63c3.19,0,5.78-2.59,5.78-5.78s-2.58-5.78-5.78-5.78-5.78,2.59-5.78,5.78,2.59,5.78,5.78,5.78"/>
    <path class="cls-4" d="M228.78,69.63c3.19,0,5.78-2.59,5.78-5.78s-2.58-5.78-5.78-5.78-5.78,2.59-5.78,5.78,2.59,5.78,5.78,5.78"/>
    <path class="cls-4" d="M269.42,69.63c3.19,0,5.78-2.59,5.78-5.78s-2.59-5.78-5.78-5.78-5.78,2.59-5.78,5.78,2.59,5.78,5.78,5.78"/>
    <path class="cls-4" d="M310.05,69.63c3.19,0,5.78-2.59,5.78-5.78s-2.59-5.78-5.78-5.78-5.77,2.59-5.77,5.78,2.59,5.78,5.77,5.78"/>
    <path class="cls-4" d="M350.69,69.63c3.19,0,5.78-2.59,5.78-5.78s-2.58-5.78-5.78-5.78-5.78,2.59-5.78,5.78,2.59,5.78,5.78,5.78"/>
    <path class="cls-4" d="M391.32,69.63c3.19,0,5.78-2.59,5.78-5.78s-2.59-5.78-5.78-5.78-5.78,2.59-5.78,5.78,2.58,5.78,5.78,5.78"/>
    <path class="cls-4" d="M431.96,69.63c3.19,0,5.78-2.59,5.78-5.78s-2.59-5.78-5.78-5.78-5.78,2.59-5.78,5.78,2.59,5.78,5.78,5.78"/>
    <path class="cls-4" d="M472.59,69.63c3.19,0,5.78-2.59,5.78-5.78s-2.59-5.78-5.78-5.78-5.78,2.59-5.78,5.78,2.59,5.78,5.78,5.78"/>
    <path class="cls-4" d="M188.15,313.1c3.19,0,5.78-2.58,5.78-5.78s-2.58-5.78-5.78-5.78-5.78,2.59-5.78,5.78,2.59,5.78,5.78,5.78"/>
    <path class="cls-4" d="M228.78,313.1c3.19,0,5.78-2.58,5.78-5.78s-2.58-5.78-5.78-5.78-5.78,2.59-5.78,5.78,2.59,5.78,5.78,5.78"/>
    <path class="cls-4" d="M269.42,313.1c3.19,0,5.78-2.58,5.78-5.78s-2.59-5.78-5.78-5.78-5.78,2.59-5.78,5.78,2.59,5.78,5.78,5.78"/>
    <path class="cls-4" d="M310.05,313.1c3.19,0,5.78-2.58,5.78-5.78s-2.59-5.78-5.78-5.78-5.77,2.59-5.77,5.78,2.59,5.78,5.77,5.78"/>
    <path class="cls-4" d="M350.69,313.1c3.19,0,5.78-2.58,5.78-5.78s-2.58-5.78-5.78-5.78-5.78,2.59-5.78,5.78,2.59,5.78,5.78,5.78"/>
    <path class="cls-4" d="M391.32,313.1c3.19,0,5.78-2.58,5.78-5.78s-2.59-5.78-5.78-5.78-5.78,2.59-5.78,5.78,2.58,5.78,5.78,5.78"/>
    <path class="cls-4" d="M431.96,313.1c3.19,0,5.78-2.58,5.78-5.78s-2.59-5.78-5.78-5.78-5.78,2.59-5.78,5.78,2.59,5.78,5.78,5.78"/>
    <path class="cls-4" d="M472.59,313.1c3.19,0,5.78-2.58,5.78-5.78s-2.59-5.78-5.78-5.78-5.78,2.59-5.78,5.78,2.59,5.78,5.78,5.78"/>
    <path class="cls-4" d="M188.15,353.68c3.19,0,5.78-2.59,5.78-5.78s-2.58-5.77-5.78-5.77-5.78,2.58-5.78,5.77,2.59,5.78,5.78,5.78"/>
    <path class="cls-4" d="M228.78,353.68c3.19,0,5.78-2.59,5.78-5.78s-2.58-5.77-5.78-5.77-5.78,2.58-5.78,5.77,2.59,5.78,5.78,5.78"/>
    <path class="cls-4" d="M269.42,353.68c3.19,0,5.78-2.59,5.78-5.78s-2.59-5.77-5.78-5.77-5.78,2.58-5.78,5.77,2.59,5.78,5.78,5.78"/>
    <path class="cls-4" d="M310.05,353.68c3.19,0,5.78-2.59,5.78-5.78s-2.59-5.77-5.78-5.77-5.77,2.58-5.77,5.77,2.59,5.78,5.77,5.78"/>
    <path class="cls-4" d="M350.69,353.68c3.19,0,5.78-2.59,5.78-5.78s-2.58-5.77-5.78-5.77-5.78,2.58-5.78,5.77,2.59,5.78,5.78,5.78"/>
    <path class="cls-4" d="M391.32,353.68c3.19,0,5.78-2.59,5.78-5.78s-2.59-5.77-5.78-5.77-5.78,2.58-5.78,5.77,2.58,5.78,5.78,5.78"/>
    <path class="cls-4" d="M431.96,353.68c3.19,0,5.78-2.59,5.78-5.78s-2.59-5.77-5.78-5.77-5.78,2.58-5.78,5.77,2.59,5.78,5.78,5.78"/>
    <path class="cls-4" d="M472.59,353.68c3.19,0,5.78-2.59,5.78-5.78s-2.59-5.77-5.78-5.77-5.78,2.58-5.78,5.77,2.59,5.78,5.78,5.78"/>
    <rect class="cls-4" x="437.35" y="438.6" width="40.81" height="40.81"/>
    <path class="cls-4" d="M83.09,299.88h-17.54l-.05,47.93h9.9l-.08-40.31h8.08c10.47,0,17.31,6.93,17.31,16,0,10.67-7.77,16.69-19.31,16.69h-3.67v7.62h5.67c14.16,0,27.63-9.7,27.63-24.24s-11.16-23.69-27.93-23.69"/>
    <polygon class="cls-4" points="145.39 306.26 127.64 306.26 127.64 319.31 145.01 319.31 145.01 325.7 127.64 325.7 127.64 341.07 148.64 341.07 148.64 347.47 116.99 347.47 116.99 299.86 145.39 299.86 145.39 306.26"/>
    <path class="cls-5" d="M69.02,110.21c3.19,0,5.78-2.59,5.78-5.78s-2.59-5.78-5.78-5.78-5.78,2.59-5.78,5.78,2.59,5.78,5.78,5.78"/>
    <path class="cls-5" d="M109.65,110.21c3.19,0,5.78-2.59,5.78-5.78s-2.58-5.78-5.78-5.78-5.78,2.59-5.78,5.78,2.59,5.78,5.78,5.78"/>
    <path class="cls-5" d="M69.02,69.63c3.19,0,5.78-2.59,5.78-5.78s-2.59-5.78-5.78-5.78-5.78,2.59-5.78,5.78,2.59,5.78,5.78,5.78"/>
    <path class="cls-5" d="M109.65,69.63c3.19,0,5.78-2.59,5.78-5.78s-2.58-5.78-5.78-5.78-5.78,2.59-5.78,5.78,2.59,5.78,5.78,5.78"/>
    <polygon class="cls-5" points="109.28 413.68 98.63 413.68 98.63 390.76 76.5 390.76 76.5 413.68 65.84 413.68 65.84 366.07 76.5 366.07 76.5 384.37 98.63 384.37 98.63 366.21 109.28 366.21 109.28 413.68"/>
    <path class="cls-5" d="M131.59,413.68v-19.92l-16.24-27,11.93-1.36c3.7,6.87,7.33,13.74,11.03,21.97,4.08-8.23,8.23-15.1,12.31-21.97l8.76,1.36-17.15,27v19.92h-10.65Z"/>
    <path class="cls-5" d="M175.9,413.68h-10.65v-47.6h16.62c11.94,0,19.26,4.49,19.26,13.74,0,8.02-7.7,15.92-20.4,15.92h-2.49v-5.92l2.34-.2c5.06-.27,9.9-3.06,9.9-9.45,0-4.9-3.55-7.69-9.82-7.69h-4.76v41.21Z"/>
    <path class="cls-5" d="M205.19,389.2c0-13.33,11.18-23.94,26.37-23.94s26.37,10.61,26.37,23.94c0,14.21-10.13,25.3-26.37,25.3s-26.37-11.09-26.37-25.3m41.4,0c0-8.77-4.46-17.14-15.03-17.14s-15.03,8.37-15.03,17.14,3.93,18.49,15.03,18.49,15.03-9.38,15.03-18.49"/>
    <polygon class="cls-5" points="272.69 413.68 272.69 372.47 256.38 372.47 256.38 366.07 299.67 366.07 299.67 372.47 283.35 372.47 283.35 413.68 272.69 413.68"/>
    <polygon class="cls-5" points="348.99 413.68 338.34 413.68 338.34 390.76 316.2 390.76 316.2 413.68 305.55 413.68 305.55 366.07 316.2 366.07 316.2 384.37 338.34 384.37 338.34 366.21 348.99 366.21 348.99 413.68"/>
    <polygon class="cls-5" points="387.07 372.47 369.32 372.47 369.32 385.53 386.69 385.53 386.69 391.92 369.32 391.92 369.32 407.28 390.32 407.28 390.32 413.68 358.67 413.68 358.67 366.07 387.07 366.07 387.07 372.47"/>
    <polygon class="cls-5" points="428.34 372.47 410.59 372.47 410.59 385.53 427.96 385.53 427.96 391.92 410.59 391.92 410.59 407.28 431.59 407.28 431.59 413.68 399.94 413.68 399.94 366.07 428.34 366.07 428.34 372.47"/>
    <polygon class="cls-5" points="449.78 386.68 449.93 386.68 468.9 365.39 477.36 368.18 459.53 387.36 480.98 411.77 470.11 414.36 449.93 389.6 449.78 389.6 449.78 413.68 439.13 413.68 439.13 366.07 449.78 366.07 449.78 386.68"/>
    <path class="cls-5" d="M91.71,439.41c-2.34-1.43-5.44-2.72-8.54-2.72-4.46,0-6.87,2.24-6.87,5.03,0,3.13,3.7,5.51,9.89,9.93,7.1,5.1,10.88,9.11,10.88,14.96s-6.35,12.92-18.28,12.92c-5.52,0-11.64-1.5-15.56-4.76l3.85-5.44c2.8,1.84,6.04,3.81,10.81,3.81,4.38,0,8.23-2.11,8.23-6.6,0-5.24-7.1-8.71-11.33-11.7-5.14-3.74-9.44-6.66-9.44-12.99s7.18-11.56,16.77-11.56c6.04,0,10.88,1.97,13.37,4.15l-3.78,4.96Z"/>
    <polygon class="cls-5" points="147.54 478.72 136.89 478.72 136.89 455.8 114.75 455.8 114.75 478.72 104.1 478.72 104.1 431.11 114.75 431.11 114.75 449.4 136.89 449.4 136.89 431.25 147.54 431.25 147.54 478.72"/>
    <path class="cls-5" d="M154.22,454.24c0-13.33,11.18-23.94,26.37-23.94s26.37,10.61,26.37,23.94c0,14.21-10.12,25.3-26.37,25.3s-26.37-11.09-26.37-25.3m41.4,0c0-8.77-4.45-17.14-15.03-17.14s-15.03,8.37-15.03,17.14,3.93,18.49,15.03,18.49,15.03-9.38,15.03-18.49"/>
    <path class="cls-5" d="M225.47,478.72h-10.65v-47.6h16.62c11.94,0,19.26,4.49,19.26,13.74,0,8.02-7.7,15.91-20.4,15.91h-2.49v-5.92l2.34-.2c5.06-.27,9.9-3.06,9.9-9.45,0-4.9-3.55-7.68-9.82-7.68h-4.76v41.21Z"/>
    <polygon class="cls-5" points="239.76 226.17 330.94 104.49 419.04 226.17 475.31 226.17 350.36 60.75 310.38 60.75 185.43 226.17 239.76 226.17"/>
    <polygon class="cls-5" points="432.39 347.5 432.39 226.17 391.56 226.17 391.61 306.3 310.21 306.3 310.34 226.17 269.42 226.17 269.42 347.5 432.39 347.5"/>
    <rect class="cls-5" x="187.07" y="306.69" width="40.81" height="40.81"/>
  </g>
  <g>
    <path class="cls-6" d="M94.49,568.84c-2.57,2.57-6.24,3.72-10.29,3.72h-14.06v-38.97h14.06c4.05,0,7.72,1.15,10.29,3.72,4.38,4.38,3.94,9.74,3.94,15.6s.44,11.55-3.94,15.92Zm-5.31-26.05c-1.31-1.59-3.06-2.41-5.69-2.41h-5.75v25.39h5.75c2.63,0,4.38-.82,5.69-2.41,1.42-1.75,1.64-4.54,1.64-10.45s-.22-8.37-1.64-10.12Z"/>
    <path class="cls-6" d="M122.07,572.56v-2.63c-1.86,1.97-4.49,2.96-7.11,2.96-2.85,0-5.14-.93-6.73-2.52-2.3-2.3-2.9-4.98-2.9-8.1v-18.22h7.11v17.24c0,3.89,2.46,5.2,4.71,5.2s4.76-1.31,4.76-5.2v-17.24h7.11v28.51h-6.95Z"/>
    <path class="cls-6" d="M136.89,539.18v-5.8h7.28v5.8h-7.28Zm.11,33.38v-28.51h7.11v28.51h-7.11Z"/>
    <path class="cls-6" d="M167.81,572.56v-2.68c-1.97,2.19-4.05,3.01-7.06,3.01-2.79,0-5.42-.98-7-2.57-2.85-2.84-2.9-7.77-2.9-12.04s.05-9.14,2.9-11.98c1.59-1.59,4.16-2.57,6.95-2.57s5.09,.77,6.95,2.85v-12.97h7.11v38.97h-6.95Zm-5.04-22.44c-4.27,0-4.82,3.5-4.82,8.15s.55,8.21,4.82,8.21,4.87-3.56,4.87-8.21-.6-8.15-4.87-8.15Z"/>
    <path class="cls-6" d="M188.32,560.52c0,3.67,2.24,6.35,6.24,6.35,3.12,0,4.65-.88,6.46-2.68l4.32,4.22c-2.9,2.9-5.69,4.49-10.84,4.49-6.73,0-13.19-3.06-13.19-14.61,0-9.3,5.03-14.56,12.42-14.56,7.94,0,12.42,5.8,12.42,13.63v3.17h-17.84Zm10.18-7.94c-.77-1.69-2.35-2.96-4.76-2.96s-3.99,1.26-4.76,2.96c-.44,1.04-.6,1.81-.66,3.07h10.84c-.06-1.26-.22-2.02-.66-3.07Z"/>
    <path class="cls-6" d="M220.76,572.56c-5.86,0-8.32-4.1-8.32-8.15v-30.81h7.11v30.37c0,1.69,.71,2.57,2.52,2.57h2.74v6.02h-4.05Z"/>
    <path class="cls-6" d="M230.39,539.18v-5.8h7.28v5.8h-7.28Zm.11,33.38v-28.51h7.11v28.51h-7.11Z"/>
    <path class="cls-6" d="M244.34,583.24h-4.05v-6.02h2.74c1.81,0,2.52-.88,2.52-2.57v-30.59h7.11v31.03c0,4.05-2.46,8.15-8.32,8.15Zm1.09-44.05v-5.8h7.28v5.8h-7.28Z"/>
    <path class="cls-6" d="M277.72,572.56l-7-11.88-3.01,3.39v8.48h-7.11v-38.97h7.11v22.11l9.47-11.65h8.59l-10.18,11.49,10.94,17.02h-8.81Z"/>
    <path class="cls-6" d="M316.18,572.56h-5.58l-10.51-28.51h7.5l5.8,17.62,5.75-17.62h7.5l-10.45,28.51Z"/>
    <path class="cls-6" d="M335.93,560.52c0,3.67,2.24,6.35,6.24,6.35,3.12,0,4.65-.88,6.46-2.68l4.32,4.22c-2.9,2.9-5.69,4.49-10.84,4.49-6.73,0-13.19-3.06-13.19-14.61,0-9.3,5.04-14.56,12.42-14.56,7.94,0,12.42,5.8,12.42,13.63v3.17h-17.84Zm10.18-7.94c-.77-1.69-2.35-2.96-4.76-2.96s-3.99,1.26-4.76,2.96c-.44,1.04-.6,1.81-.66,3.07h10.84c-.06-1.26-.22-2.02-.66-3.07Z"/>
    <path class="cls-6" d="M375.82,551.82c-1.09-1.1-2.02-1.7-3.77-1.7-2.19,0-4.6,1.64-4.6,5.25v17.18h-7.11v-28.51h6.95v2.74c1.37-1.64,4.1-3.07,7.17-3.07,2.79,0,4.76,.71,6.73,2.68l-5.36,5.42Z"/>
    <path class="cls-6" d="M401.59,572.56v-17.4c0-3.77-2.41-5.03-4.65-5.03s-4.6,1.31-4.6,5.03v17.4h-7.11v-38.97h7.11v13.08c1.92-1.97,4.32-2.96,6.84-2.96,6.24,0,9.52,4.38,9.52,10.4v18.44h-7.12Z"/>
    <path class="cls-6" d="M430.97,572.56v-2.46c-1.92,1.92-3.72,2.74-7,2.74s-5.58-.82-7.28-2.52c-1.53-1.59-2.35-3.89-2.35-6.4,0-4.54,3.12-8.26,9.74-8.26h6.73v-1.42c0-3.12-1.53-4.49-5.31-4.49-2.74,0-4,.66-5.47,2.35l-4.54-4.43c2.79-3.06,5.53-3.94,10.29-3.94,7.99,0,12.15,3.39,12.15,10.07v18.77h-6.95Zm-.16-12.04h-5.64c-2.57,0-3.99,1.21-3.99,3.23s1.31,3.28,4.1,3.28c1.97,0,3.23-.16,4.49-1.37,.77-.71,1.04-1.86,1.04-3.61v-1.53Z"/>
    <path class="cls-6" d="M460.18,572.56v-2.46c-1.91,1.92-3.72,2.74-7,2.74s-5.58-.82-7.28-2.52c-1.53-1.59-2.35-3.89-2.35-6.4,0-4.54,3.12-8.26,9.74-8.26h6.73v-1.42c0-3.12-1.53-4.49-5.31-4.49-2.74,0-3.99,.66-5.47,2.35l-4.54-4.43c2.79-3.06,5.53-3.94,10.29-3.94,7.99,0,12.15,3.39,12.15,10.07v18.77h-6.95Zm-.16-12.04h-5.64c-2.57,0-4,1.21-4,3.23s1.31,3.28,4.1,3.28c1.97,0,3.23-.16,4.49-1.37,.77-.71,1.04-1.86,1.04-3.61v-1.53Z"/>
    <path class="cls-6" d="M482.83,572.56c-5.86,0-8.32-4.1-8.32-8.15v-30.81h7.11v30.37c0,1.69,.71,2.57,2.52,2.57h2.74v6.02h-4.05Z"/>
  </g>
</svg>