<?xml version="1.0" encoding="UTF-8" standalone="no"?>
<svg
   xmlns:dc="http://purl.org/dc/elements/1.1/"
   xmlns:cc="http://creativecommons.org/ns#"
   xmlns:rdf="http://www.w3.org/1999/02/22-rdf-syntax-ns#"
   xmlns:svg="http://www.w3.org/2000/svg"
   xmlns="http://www.w3.org/2000/svg"
   version="1.1"
   id="svg2"
   xml:space="preserve"
   width="566.92932"
   height="566.92932"
   viewBox="0 0 566.92932 566.92932"><metadata
     id="metadata8"><rdf:RDF><cc:Work
         rdf:about=""><dc:format>image/svg+xml</dc:format><dc:type
           rdf:resource="http://purl.org/dc/dcmitype/StillImage" /></cc:Work></rdf:RDF></metadata><defs
     id="defs6"><clipPath
       clipPathUnits="userSpaceOnUse"
       id="clipPath18"><path
         d="M 0,425.197 H 425.197 V 0 H 0 Z"
         id="path16" /></clipPath></defs><g
     id="g10"
     transform="matrix(1.3333333,0,0,-1.3333333,0,566.92933)"><g
       id="g12"><g
         id="g14"
         clip-path="url(#clipPath18)"><g
           id="g20"
           transform="translate(354.6539,193.8319)"><path
             d="m 0,0 c 0,-83.658 -67.818,-151.476 -151.476,-151.476 -83.658,0 -151.477,67.818 -151.477,151.476 0,83.658 67.819,151.476 151.477,151.476 C -67.818,151.476 0,83.658 0,0"
             style="fill:#ffffff;fill-opacity:1;fill-rule:nonzero;stroke:none"
             id="path22" /></g><g
           id="g24"
           transform="translate(348.8097,193.8319)"><path
             d="m 0,0 c 0,-80.723 -65.439,-146.161 -146.161,-146.161 -80.723,0 -146.162,65.438 -146.162,146.161 0,80.723 65.439,146.161 146.162,146.161 C -65.439,146.161 0,80.723 0,0"
             style="fill:#ffffff;fill-opacity:1;fill-rule:nonzero;stroke:none"
             id="path26" /></g><g
           id="g28"
           transform="translate(348.8097,193.8319)"><path
             d="m 0,0 c 0,-80.723 -65.439,-146.161 -146.161,-146.161 -80.723,0 -146.162,65.438 -146.162,146.161 0,80.723 65.439,146.161 146.162,146.161 C -65.439,146.161 0,80.723 0,0 Z"
             style="fill:none;stroke:#6a3fa2;stroke-width:3.75;stroke-linecap:butt;stroke-linejoin:miter;stroke-miterlimit:10;stroke-dasharray:none;stroke-opacity:1"
             id="path30" /></g><g
           id="g32"
           transform="translate(79.3265,185.2832)"><path
             d="m 0,0 c 0,0 15.36,-119.668 123.563,-119.277 108.203,0.39 128.716,97.127 128.716,121.736"
             style="fill:none;stroke:#6a3fa2;stroke-width:4.688;stroke-linecap:round;stroke-linejoin:miter;stroke-miterlimit:10;stroke-dasharray:0.938, 9.375, 0.938, 9.375, 0.938, 9.375;stroke-dashoffset:0;stroke-opacity:1"
             id="path34" /></g><g
           id="g36"
           transform="translate(306.802,193.8515)"><path
             d="m 0,0 c 0,-57.24 -46.402,-103.642 -103.642,-103.642 -57.239,0 -103.641,46.402 -103.641,103.642 0,57.24 46.402,103.642 103.641,103.642 C -46.402,103.642 0,57.24 0,0"
             style="fill:#da98d1;fill-opacity:1;fill-rule:nonzero;stroke:none"
             id="path38" /></g><g
           id="g40"
           transform="translate(306.802,193.8515)"><path
             d="m 0,0 c 0,-57.24 -46.402,-103.642 -103.642,-103.642 -57.239,0 -103.641,46.402 -103.641,103.642 0,57.24 46.402,103.642 103.641,103.642 C -46.402,103.642 0,57.24 0,0 Z"
             style="fill:none;stroke:#6a3fa2;stroke-width:3.656;stroke-linecap:butt;stroke-linejoin:miter;stroke-miterlimit:10;stroke-dasharray:none;stroke-opacity:1"
             id="path42" /></g><g
           id="g44"
           transform="translate(137.4233,208.56)"><path
             d="m 0,0 127.787,-0.253 c 0,0 12.236,-3.74 12.098,-16.068 -0.224,-20.119 -12.112,-11.121 -12.319,-15.948 -0.354,-8.263 -2.71,-21.686 -11.051,-22.52 -3.588,-0.359 -33.781,-123.445 -47.111,-123.544 -18.472,-0.136 -32.127,105.819 -50.06,126.88 -2.664,3.128 -4.17,21.686 -4.17,21.686 -8.467,0.717 -18.976,-3.336 -19.81,14.179 C -5.196,-3.824 0,0 0,0"
             style="fill:#a9a14f;fill-opacity:1;fill-rule:nonzero;stroke:none"
             id="path46" /></g><g
           id="g48"
           transform="translate(206.1867,114.3601)"><path
             d="M 0,0 -6.464,-5.839 0,-12.094 5.63,-6.047 Z"
             style="fill:#b9a861;fill-opacity:1;fill-rule:nonzero;stroke:none"
             id="path50" /></g><g
           id="g52"
           transform="translate(194.718,124.9946)"><path
             d="M 0,0 -6.464,-5.839 0,-12.094 5.63,-6.047 Z"
             style="fill:#b9a861;fill-opacity:1;fill-rule:nonzero;stroke:none"
             id="path54" /></g><g
           id="g56"
           transform="translate(206.6037,136.2548)"><path
             d="M 0,0 -6.464,-5.839 0,-12.094 5.63,-6.047 Z"
             style="fill:#b9a861;fill-opacity:1;fill-rule:nonzero;stroke:none"
             id="path58" /></g><g
           id="g60"
           transform="translate(216.9323,149.1655)"><path
             d="M 0,0 -6.464,-5.839 0,-12.094 5.63,-6.047 Z"
             style="fill:#b9a861;fill-opacity:1;fill-rule:nonzero;stroke:none"
             id="path62" /></g><g
           id="g64"
           transform="translate(216.1957,169.8266)"><path
             d="M 0,0 -6.464,-5.839 0,-12.094 5.63,-6.047 Z"
             style="fill:#b9a861;fill-opacity:1;fill-rule:nonzero;stroke:none"
             id="path66" /></g><g
           id="g68"
           transform="translate(203.6539,161.3425)"><path
             d="M 0,0 -6.464,-5.839 0,-12.094 5.63,-6.047 Z"
             style="fill:#b9a861;fill-opacity:1;fill-rule:nonzero;stroke:none"
             id="path70" /></g><g
           id="g72"
           transform="translate(228.0814,180.8783)"><path
             d="M 0,0 -6.464,-5.839 0,-12.094 5.63,-6.047 Z"
             style="fill:#b9a861;fill-opacity:1;fill-rule:nonzero;stroke:none"
             id="path74" /></g><g
           id="g76"
           transform="translate(241.7298,173.8696)"><path
             d="M 0,0 -6.464,-5.839 0,-12.094 5.63,-6.047 Z"
             style="fill:#b9a861;fill-opacity:1;fill-rule:nonzero;stroke:none"
             id="path78" /></g><g
           id="g80"
           transform="translate(184.292,202.3559)"><path
             d="M 0,0 -6.464,-5.839 0,-12.094 5.63,-6.047 Z"
             style="fill:#b9a861;fill-opacity:1;fill-rule:nonzero;stroke:none"
             id="path82" /></g><g
           id="g84"
           transform="translate(162.6058,203.8156)"><path
             d="M 0,0 -6.464,-5.839 0,-12.094 5.63,-6.047 Z"
             style="fill:#b9a861;fill-opacity:1;fill-rule:nonzero;stroke:none"
             id="path86" /></g><g
           id="g88"
           transform="translate(151.9712,192.9725)"><path
             d="M 0,0 -6.464,-5.839 0,-12.094 5.63,-6.047 Z"
             style="fill:#aca24b;fill-opacity:1;fill-rule:nonzero;stroke:none"
             id="path90" /></g><g
           id="g92"
           transform="translate(141.5452,204.2326)"><path
             d="M 0,0 -6.464,-5.839 0,-12.094 5.63,-6.047 Z"
             style="fill:#b9a861;fill-opacity:1;fill-rule:nonzero;stroke:none"
             id="path94" /></g><g
           id="g96"
           transform="translate(173.6574,192.9725)"><path
             d="M 0,0 -6.464,-5.839 0,-12.094 5.63,-6.047 Z"
             style="fill:#b9a861;fill-opacity:1;fill-rule:nonzero;stroke:none"
             id="path98" /></g><g
           id="g100"
           transform="translate(151.8937,194.0791)"><path
             d="M 0,0 -6.464,-5.839 0,-12.094 5.63,-6.047 Z"
             style="fill:#b9a861;fill-opacity:1;fill-rule:nonzero;stroke:none"
             id="path102" /></g><g
           id="g104"
           transform="translate(160.3779,183.3817)"><path
             d="M 0,0 -6.464,-5.839 0,-12.094 5.63,-6.047 Z"
             style="fill:#b9a861;fill-opacity:1;fill-rule:nonzero;stroke:none"
             id="path106" /></g><g
           id="g108"
           transform="translate(183.875,181.2953)"><path
             d="M 0,0 -6.464,-5.839 0,-12.094 5.63,-6.047 Z"
             style="fill:#b9a861;fill-opacity:1;fill-rule:nonzero;stroke:none"
             id="path110" /></g><g
           id="g112"
           transform="translate(173.3217,170.0694)"><path
             d="M 0,0 -6.464,-5.839 0,-12.094 5.63,-6.047 Z"
             style="fill:#b9a861;fill-opacity:1;fill-rule:nonzero;stroke:none"
             id="path114" /></g><g
           id="g116"
           transform="translate(195.3101,192.3616)"><path
             d="M 0,0 -6.464,-5.839 0,-12.094 5.63,-6.047 Z"
             style="fill:#b9a861;fill-opacity:1;fill-rule:nonzero;stroke:none"
             id="path118" /></g><g
           id="g120"
           transform="translate(205.3526,181.9209)"><path
             d="M 0,0 -6.464,-5.839 0,-12.094 5.63,-6.047 Z"
             style="fill:#b9a861;fill-opacity:1;fill-rule:nonzero;stroke:none"
             id="path122" /></g><g
           id="g124"
           transform="translate(182.1134,159.7883)"><path
             d="M 0,0 -6.464,-5.839 0,-12.094 5.63,-6.047 Z"
             style="fill:#b9a861;fill-opacity:1;fill-rule:nonzero;stroke:none"
             id="path126" /></g><g
           id="g128"
           transform="translate(193.5486,170.1168)"><path
             d="M 0,0 -6.464,-5.839 0,-12.094 5.63,-6.047 Z"
             style="fill:#b9a861;fill-opacity:1;fill-rule:nonzero;stroke:none"
             id="path130" /></g><g
           id="g132"
           transform="translate(223.2854,203.607)"><path
             d="M 0,0 -6.464,-5.839 0,-12.094 5.63,-6.047 Z"
             style="fill:#b9a861;fill-opacity:1;fill-rule:nonzero;stroke:none"
             id="path134" /></g><g
           id="g136"
           transform="translate(258.9425,203.19)"><path
             d="M 0,0 -6.464,-5.839 0,-12.094 5.63,-6.047 Z"
             style="fill:#b9a861;fill-opacity:1;fill-rule:nonzero;stroke:none"
             id="path138" /></g><g
           id="g140"
           transform="translate(258.734,185.2572)"><path
             d="M 0,0 -6.464,-5.839 0,-12.094 5.63,-6.047 Z"
             style="fill:#b9a861;fill-opacity:1;fill-rule:nonzero;stroke:none"
             id="path142" /></g><g
           id="g144"
           transform="translate(184.709,115.1942)"><path
             d="M 0,0 -6.464,-5.839 0,-12.094 5.63,-6.047 Z"
             style="fill:#b9a861;fill-opacity:1;fill-rule:nonzero;stroke:none"
             id="path146" /></g><g
           id="g148"
           transform="translate(176.3682,126.0372)"><path
             d="M 0,0 -4.77,-4.308 0,-12.094 5.63,-6.047 Z"
             style="fill:#b9a861;fill-opacity:1;fill-rule:nonzero;stroke:none"
             id="path150" /></g><g
           id="g152"
           transform="translate(195.5521,102.8914)"><path
             d="M 0,0 -6.464,-5.839 0,-12.094 5.63,-6.047 Z"
             style="fill:#b9a861;fill-opacity:1;fill-rule:nonzero;stroke:none"
             id="path154" /></g><g
           id="g156"
           transform="translate(185.2236,92.9317)"><path
             d="m 0,0 -3.732,-6.084 1.884,-7.572 7.478,7.609 z"
             style="fill:#b9a861;fill-opacity:1;fill-rule:nonzero;stroke:none"
             id="path158" /></g><g
           id="g160"
           transform="translate(205.9782,91.6313)"><path
             d="M 0,0 -6.464,-5.839 0,-12.094 5.63,-6.047 Z"
             style="fill:#b9a861;fill-opacity:1;fill-rule:nonzero;stroke:none"
             id="path162" /></g><g
           id="g164"
           transform="translate(216.6127,103.517)"><path
             d="M 0,0 -6.464,-5.839 0,-12.094 5.63,-6.047 Z"
             style="fill:#b9a861;fill-opacity:1;fill-rule:nonzero;stroke:none"
             id="path166" /></g><g
           id="g168"
           transform="translate(228.707,115.6112)"><path
             d="M 0,0 -6.464,-5.839 0,-12.094 5.63,-6.047 Z"
             style="fill:#b9a861;fill-opacity:1;fill-rule:nonzero;stroke:none"
             id="path170" /></g><g
           id="g172"
           transform="translate(236.0845,128.8907)"><path
             d="M 0,0 -6.464,-5.839 0,-12.094 5.63,-6.047 Z"
             style="fill:#b9a861;fill-opacity:1;fill-rule:nonzero;stroke:none"
             id="path174" /></g><g
           id="g176"
           transform="translate(243.0932,152.8677)"><path
             d="M 0,0 -6.464,-5.839 0,-12.094 5.63,-6.047 Z"
             style="fill:#b9a861;fill-opacity:1;fill-rule:nonzero;stroke:none"
             id="path178" /></g><g
           id="g180"
           transform="translate(216.4042,124.9946)"><path
             d="M 0,0 -6.464,-5.839 0,-12.094 5.63,-6.047 Z"
             style="fill:#b9a861;fill-opacity:1;fill-rule:nonzero;stroke:none"
             id="path182" /></g><g
           id="g184"
           transform="translate(230.0527,161.5134)"><path
             d="M 0,0 -6.464,-5.839 0,-12.094 5.63,-6.047 Z"
             style="fill:#b9a861;fill-opacity:1;fill-rule:nonzero;stroke:none"
             id="path186" /></g><g
           id="g188"
           transform="translate(225.995,141.2252)"><path
             d="M 0,0 -6.464,-5.839 0,-12.094 5.63,-6.047 Z"
             style="fill:#b9a861;fill-opacity:1;fill-rule:nonzero;stroke:none"
             id="path190" /></g><g
           id="g192"
           transform="translate(196.3862,81.8308)"><path
             d="M 0,0 -6.464,-5.839 0,-12.094 5.63,-6.047 Z"
             style="fill:#b9a861;fill-opacity:1;fill-rule:nonzero;stroke:none"
             id="path194" /></g><g
           id="g196"
           transform="translate(187.5332,72.6089)"><path
             d="m 0,0 -0.877,-5.68 2.407,-6.815 4.1,6.448 z"
             style="fill:#b9a861;fill-opacity:1;fill-rule:nonzero;stroke:none"
             id="path198" /></g><g
           id="g200"
           transform="translate(206.3952,69.9451)"><path
             d="M 0,0 -6.464,-5.839 0,-12.094 5.63,-6.047 Z"
             style="fill:#b9a861;fill-opacity:1;fill-rule:nonzero;stroke:none"
             id="path202" /></g><g
           id="g204"
           transform="translate(195.3289,59.6165)"><path
             d="m 0,0 -4.691,-4.237 3.121,-8.384 7.2,6.574 z"
             style="fill:#b9a861;fill-opacity:1;fill-rule:nonzero;stroke:none"
             id="path206" /></g><g
           id="g208"
           transform="translate(218.4894,80.7882)"><path
             d="M 0,0 -6.464,-5.839 0,-12.094 5.63,-6.047 Z"
             style="fill:#b9a861;fill-opacity:1;fill-rule:nonzero;stroke:none"
             id="path210" /></g><g
           id="g212"
           transform="translate(227.8729,93.2994)"><path
             d="M 0,0 -6.464,-5.839 0,-12.094 4.933,-5.299 Z"
             style="fill:#b9a861;fill-opacity:1;fill-rule:nonzero;stroke:none"
             id="path214" /></g><g
           id="g216"
           transform="translate(205.7697,47.2163)"><path
             d="M 0,0 -6.464,-5.839 0,-12.094 5.63,-6.047 Z"
             style="fill:#b9a861;fill-opacity:1;fill-rule:nonzero;stroke:none"
             id="path218" /></g><g
           id="g220"
           transform="translate(217.8639,59.7276)"><path
             d="M 0,0 -6.464,-5.839 0,-12.094 4.126,-4.432 Z"
             style="fill:#b9a861;fill-opacity:1;fill-rule:nonzero;stroke:none"
             id="path222" /></g><g
           id="g224"
           transform="translate(211.968,34.8908)"><path
             d="m 0,0 c 2.567,6.365 14.961,35.204 14.961,35.204 0,0 25.001,74.252 24.739,80.121 -0.196,4.39 5.674,3.87 7.629,6.459 3.905,5.169 4.209,9.941 4.418,14.111 0.229,4.582 12.988,5.405 12.828,19.235 -0.276,23.736 -15.979,19.218 -15.979,19.218 0,0 -5.673,-3.989 -2.962,-6.283 2.711,-2.294 6.881,-0.834 7.715,-6.255 0.835,-5.422 3.22,-15.909 -0.741,-17.369 -3.962,-1.459 -6.977,-4.228 -9.061,-8.026 -2.083,-3.798 -0.832,-7.76 -2.917,-10.471 -2.085,-2.711 -8.341,-3.753 -8.341,-3.753 L 14.148,65.473 1.042,21.396 -5.245,0.623 c 0,0 -3.336,2.137 -3.336,-3.337 0,-3.961 7.337,-0.371 8.581,2.714"
             style="fill:#af9043;fill-opacity:1;fill-rule:nonzero;stroke:none"
             id="path226" /></g><g
           id="g228"
           transform="translate(142.7323,146.1431)"><path
             d="m 0,0 c 0,5.691 -0.034,16.824 0,22.075 0.008,1.308 -1.104,1.923 -2.386,2.348 -0.255,0.084 -0.498,0.205 -0.742,0.319 -2.31,1.079 -3.342,2.552 -2.978,4.249 0.359,1.671 2.039,2.991 4.314,3.011 4.989,0.042 7.673,0.085 12.659,-0.083 2.534,-0.086 7.469,-0.255 9.875,-0.961 9.637,-2.829 9.115,-16.128 2.734,-19.75 -2.93,-1.035 0,0 -0.712,-0.516 3.824,-1.657 9.141,-5.173 9.678,-13.29 C 32.077,-24.144 5.001,-24.661 -7.2,-17.749 c -4.451,2.599 -7.064,6.778 -8.152,11.821 -1.067,4.941 0.3,9.203 3.864,12.76 3.492,3.485 10.13,2.305 10.13,-3.178 0,-2.932 -2.11,-4.096 -2.11,-4.096 -2.74,-3.352 -1.444,-8.194 1.571,-10.595 4.972,-4.406 16.058,-2.885 20.84,0.645 1.883,1.389 2.949,3.28 3.056,5.665 C 22.275,1.388 18.828,5.265 12.553,5.839 11.62,5.924 9.733,5.915 8.792,5.915 8.737,5.681 8.85,4.718 8.795,4.484 9.291,4.122 10.537,4.389 11.059,4.07 14.133,2.192 12.983,-1.178 10.347,-3.622 8.372,-5.453 6.788,-6.602 4.829,-8.45 2.671,-10.487 1.302,-11.617 -1.897,-9.485 l -0.862,0.69 c -1.167,2.28 -0.506,3.901 0.686,5.814 C -1.208,-1.594 -0.518,-1.604 0,0 m 11.306,23.641 c -0.448,-0.022 -2.673,0.021 -2.683,-0.359 -0.057,-2.081 -0.057,-5.781 0.14,-7.85 0.048,-0.497 0.89,-1.327 1.333,-1.305 1.853,0.092 4.448,0.233 6.21,0.767 1.985,0.602 2.692,2.867 2.195,4.885 -0.22,3.675 -4.015,4.02 -7.195,3.862"
             style="fill:#6a40a3;fill-opacity:1;fill-rule:nonzero;stroke:none"
             id="path230" /></g><g
           id="g232"
           transform="translate(227.2882,145.0118)"><path
             d="m 0,0 c -4.252,0.001 -6.195,4.193 -8.54,4.214 -1.943,0.018 -1.903,-1.768 -0.837,-2.216 2.979,-1.251 6.382,-2.468 8.014,-3.096 3.445,-1.265 5.253,-3.325 5.153,-7.494 -0.019,-5.678 -5.379,-8.617 -9.631,-8.638 -4.047,-0.02 -2.858,0.871 -4.047,0.895 -1.819,0.037 -0.52,-1.696 -3.904,-1.523 -3.401,0.173 -6.828,4.939 -6.737,9.147 0.04,1.826 1.391,3.318 3.375,3.414 1.628,0.08 2.326,-0.185 5.068,-2.083 2.437,-1.728 2.797,-2.642 4.779,-2.642 1.628,0 2.064,0.65 2.064,1.271 0.001,2.184 -6.704,3.386 -9.051,4.385 -4.852,2.066 -6.424,6.387 -4.107,10.958 2.081,3.438 5.297,4.311 7.919,4.357 2.698,0.046 2.063,-0.856 3.652,-0.84 2.066,0.022 1.126,1.711 4.365,1.711 3.191,0 4.257,-4.313 5.004,-6.403 C 3.593,2.463 2.392,-0.001 0,0"
             style="fill:#6a40a3;fill-opacity:1;fill-rule:nonzero;stroke:none"
             id="path234" /></g><g
           id="g236"
           transform="translate(185.3279,144.6311)"><path
             d="M 0,0 C 1.388,-0.008 2.235,0.008 5.855,0.026 6.862,0.031 8.467,0.283 8.498,1.731 8.467,2.896 6.799,3.604 5.193,3.683 3.248,3.777 0.692,3.557 0,0 m 0.818,-5.791 c -0.157,-2.33 4.103,-3.944 6.799,-2.77 0.925,0.402 2.254,1.215 3.179,1.605 1.196,0.504 3.279,1.036 4.91,-0.913 1.228,-1.605 0.489,-3.666 -0.457,-5.173 -2.344,-3.042 -4.957,-3.571 -10.307,-3.547 -7.24,0.033 -13.629,4.817 -13.628,13.276 10e-4,7.263 3.368,12.532 10.403,14.212 7.322,1.75 15.318,-4.195 15.253,-9.755 -0.068,-5.739 -4.192,-6.966 -6.269,-6.966 0,0 -6.35,0.031 -9.883,0.031"
             style="fill:#6a40a3;fill-opacity:1;fill-rule:nonzero;stroke:none"
             id="path238" /></g><g
           id="g240"
           transform="translate(193.4261,164.6989)"><path
             d="M 0,0 C 0.588,-0.003 1.94,-0.051 3.473,-0.043 3.899,-0.041 3.974,0.073 3.987,0.686 3.974,1.179 3.082,1.711 2.401,1.715 1.93,1.718 0.043,1.672 0,0 m 0.538,-2.493 c -0.067,-0.987 1.738,-1.67 2.88,-1.173 0.391,0.17 0.954,0.515 1.346,0.68 0.507,0.213 1.389,0.438 2.08,-0.387 0.52,-0.68 0.207,-1.553 -0.194,-2.191 -0.993,-1.288 -2.099,-1.513 -4.365,-1.502 -3.067,0.014 -5.773,2.04 -5.772,5.623 0,3.076 1.426,5.307 4.406,6.019 3.101,0.741 6.487,-1.777 6.46,-4.132 -0.029,-2.431 -1.775,-2.95 -2.655,-2.95 0,0 -2.69,0.013 -4.186,0.013"
             style="fill:#6a40a3;fill-opacity:1;fill-rule:nonzero;stroke:none"
             id="path242" /></g><g
           id="g244"
           transform="translate(184.8329,164.1486)"><path
             d="m 0,0 c -0.025,1.561 -0.978,2.431 -2.036,2.459 -2.065,0.055 -2.616,-1.95 -2.599,-3.195 0.023,-1.672 1.142,-2.229 2.016,-2.229 1.615,0 1.953,-0.531 1.932,-1.615 -0.026,-1.376 -1.482,-1.72 -2.592,-1.682 -2.443,0.084 -4.615,2.096 -4.645,5.679 -0.028,3.416 2.102,5.877 5.252,5.903 1.543,0.013 2.749,-0.806 2.753,-0.503 0.026,1.88 0.063,2.244 -0.148,2.293 -0.558,0.128 -1.764,-0.301 -1.702,0.87 0.073,1.359 2.909,3.338 3.758,3.368 0.977,0.034 1.202,-0.251 1.245,-0.894 C 3.277,9.811 3.099,-3.389 3.099,-3.389 c 0,0 1.503,-0.385 1.503,-1.457 0,-1.072 -0.339,-1.454 -2.165,-1.428 -0.816,0.012 -2.33,0.106 -2.356,1.085 C 0.052,-4.128 0.026,-1.644 0,0"
             style="fill:#6a40a3;fill-opacity:1;fill-rule:nonzero;stroke:none"
             id="path246" /></g><g
           id="g248"
           transform="translate(262.2823,144.6311)"><path
             d="M 0,0 C 1.388,-0.008 2.235,0.008 5.855,0.026 6.862,0.031 8.467,0.283 8.498,1.731 8.467,2.896 6.799,3.604 5.193,3.683 3.248,3.777 0.692,3.557 0,0 m 0.818,-5.791 c -0.157,-2.33 4.103,-3.944 6.799,-2.77 0.925,0.402 2.254,1.215 3.179,1.605 1.196,0.504 3.279,1.036 4.91,-0.913 1.228,-1.605 0.489,-3.666 -0.457,-5.173 -2.344,-3.042 -4.957,-3.571 -10.307,-3.547 -7.24,0.033 -13.629,4.817 -13.628,13.276 10e-4,7.263 3.368,12.532 10.403,14.212 7.322,1.75 15.318,-4.195 15.253,-9.755 -0.068,-5.739 -4.192,-6.966 -6.269,-6.966 0,0 -6.35,0.031 -9.883,0.031"
             style="fill:#6a40a3;fill-opacity:1;fill-rule:nonzero;stroke:none"
             id="path250" /></g><g
           id="g252"
           transform="translate(233.5972,155.3774)"><path
             d="m 0,0 c 1.502,1.702 1.884,1.826 3.284,3.941 0.968,1.577 1.736,3.378 3.859,3.462 1.727,0.068 3.11,-1.75 3.508,-3.79 0.137,-0.704 0.262,-3.462 0.422,-4.645 0,0 3.015,0.083 3.754,0.042 2.486,-0.136 3.9,-1.354 3.897,-3.609 -0.003,-2.392 -2.631,-3.377 -7.746,-3.377 l -0.053,-10.978 c -0.04,-0.705 0.664,-0.424 0.946,-0.424 0.61,0 1.595,2.425 3.941,2.361 2.252,-0.062 3.255,-1.901 3.198,-4.858 -0.054,-2.899 -3.527,-5.808 -7.987,-5.708 -3.987,0.088 -6.269,0.88 -7.504,3.748 -0.903,2.096 -0.888,3.49 -0.938,4.457 -0.162,3.093 0.04,8.677 0,11.777 -0.111,0.218 -1.082,0.125 -3.568,0.219 -0.663,0.025 -1.969,0.813 -1.922,3.347 C -2.878,-2.387 -1.399,-1.586 0,0"
             style="fill:#6a40a3;fill-opacity:1;fill-rule:nonzero;stroke:none"
             id="path254" /></g><g
           id="g256"
           transform="translate(256.0232,232.5915)"><path
             d="m 0,0 c 5.416,-15.594 15.013,-6.464 12.303,-24.397 l -128.829,0.255 c -3.633,3.089 -5.688,11.193 0.171,17.052 5.86,5.86 6.301,5.182 11.904,5.098 6.238,-0.093 -0.018,39.734 52.946,40.151 C -18.142,38.422 -7.246,20.862 0,0"
             style="fill:#6a40a3;fill-opacity:1;fill-rule:nonzero;stroke:none"
             id="path258" /></g><g
           id="g260"
           transform="translate(199.3055,258.031)"><path
             d="M 0,0 C -29.193,-0.417 -32.738,-27.525 -33.363,-33.989"
             style="fill:#6a40a3;fill-opacity:1;fill-rule:nonzero;stroke:#e1a8d9;stroke-width:4.688;stroke-linecap:round;stroke-linejoin:miter;stroke-miterlimit:10;stroke-dasharray:none;stroke-opacity:1"
             id="path262" /></g><g
           id="g264"
           transform="translate(211.2005,176.9164)"><path
             d="m 0,0 h -1.886 c -5.846,0 -11.459,6.625 -11.459,12.472 v 24.406 c 0,5.846 4.784,10.63 10.63,10.63 h 1.886 c 5.847,0 10.63,-4.784 10.63,-10.63 V 12.472 C 9.801,6.625 5.846,0 0,0"
             style="fill:#6a40a3;fill-opacity:1;fill-rule:nonzero;stroke:none"
             id="path266" /></g><g
           id="g268"
           transform="translate(202.2248,208.3251)"><path
             d="M 0,0 C 0.626,-22.234 -0.306,-23.423 1.961,-24.252"
             style="fill:none;stroke:#e1a8d9;stroke-width:3.938;stroke-linecap:round;stroke-linejoin:miter;stroke-miterlimit:10;stroke-dasharray:none;stroke-opacity:1"
             id="path270" /></g><g
           id="g272"
           transform="translate(245.4033,165.2042)"><path
             d="m 0,0 h -1.886 c -5.871,0 -10.63,4.759 -10.63,10.63 l -0.01,31.318 c 0,5.87 3.096,6.881 8.967,6.881 L -0.64,48.62 c 5.871,0 11.27,0.267 11.27,-5.603 V 10.63 C 10.63,4.759 5.871,0 0,0"
             style="fill:#6a40a3;fill-opacity:1;fill-rule:nonzero;stroke:none"
             id="path274" /></g><g
           id="g276"
           transform="translate(236.8353,208.2568)"><path
             d="M 0,0 C 0,-32.321 -2.081,-36.762 4.591,-39.056"
             style="fill:none;stroke:#e1a8d9;stroke-width:3.938;stroke-linecap:round;stroke-linejoin:miter;stroke-miterlimit:10;stroke-dasharray:none;stroke-opacity:1"
             id="path278" /></g><g
           id="g280"
           transform="translate(65.6464,200.5962)"><path
             d="M 0,0 25.227,-1.475 24.894,-7.164 -0.332,-5.688 Z"
             style="fill:#6a40a3;fill-opacity:1;fill-rule:nonzero;stroke:none"
             id="path282" /></g><g
           id="g284"
           transform="translate(67.5565,215.5645)"><path
             d="M 0,0 1.002,5.609 16.726,2.797 c 7.088,-1.268 8.953,-5.104 7.983,-10.529 -0.238,-1.329 -0.763,-2.988 -1.33,-4.03 l -4.429,1.439 c 0.398,0.73 0.761,1.692 0.959,2.801 0.423,2.362 -0.384,4.03 -4.222,4.715 z"
             style="fill:#6a40a3;fill-opacity:1;fill-rule:nonzero;stroke:none"
             id="path286" /></g><g
           id="g288"
           transform="translate(89.4659,225.3708)"><path
             d="M 0,0 C 1.246,1.147 2.795,3.144 3.613,5.44 4.495,7.913 3.938,9.585 2.384,10.14 0.899,10.669 -0.352,9.841 -2.361,7.334 -5.186,3.881 -8.309,2.047 -11.77,3.281 c -4.063,1.45 -5.914,5.973 -3.923,11.554 0.971,2.721 2.194,4.474 3.37,5.647 l 3.881,-2.737 c -0.788,-0.755 -2.076,-2.246 -2.896,-4.541 -0.831,-2.333 -0.139,-3.852 1.062,-4.283 1.519,-0.541 2.655,0.527 4.931,3.22 3.054,3.648 5.937,4.81 9.293,3.613 3.991,-1.425 6.299,-5.672 3.967,-12.207 -0.97,-2.72 -2.67,-5.14 -3.891,-6.218 z"
             style="fill:#6a40a3;fill-opacity:1;fill-rule:nonzero;stroke:none"
             id="path290" /></g><g
           id="g292"
           transform="translate(97.9749,246.8735)"><path
             d="M 0,0 C 1.445,0.884 3.352,2.541 4.601,4.634 5.947,6.888 5.723,8.637 4.308,9.482 2.955,10.289 1.567,9.72 -0.892,7.65 -4.332,4.814 -7.751,3.622 -10.905,5.507 c -3.704,2.21 -4.641,7.004 -1.604,12.092 1.48,2.479 3.02,3.961 4.401,4.885 l 3.275,-3.441 c -0.919,-0.587 -2.471,-1.799 -3.722,-3.892 -1.269,-2.124 -0.886,-3.752 0.209,-4.404 1.385,-0.828 2.708,-0.002 5.462,2.199 3.704,2.986 6.758,3.563 9.816,1.738 C 10.57,12.512 12.008,7.897 8.453,1.942 6.973,-0.538 4.835,-2.58 3.429,-3.401 Z"
             style="fill:#6a40a3;fill-opacity:1;fill-rule:nonzero;stroke:none"
             id="path294" /></g><g
           id="g296"
           transform="translate(115.1429,278.5774)"><path
             d="m 0,0 -4.986,2.524 c -1.401,0.699 -3.075,1.655 -4.425,2.41 L -9.463,4.88 c 0.836,-1.302 1.972,-2.883 2.755,-4.187 l 2.881,-4.764 z m -1.277,-7.601 3.494,-5.753 -4.031,-4.29 L -14.966,5.265 -9.831,10.73 13.978,-0.84 9.742,-5.348 3.68,-2.327 Z"
             style="fill:#6a40a3;fill-opacity:1;fill-rule:nonzero;stroke:none"
             id="path298" /></g><g
           id="g300"
           transform="translate(118.805,301.4243)"><path
             d="m 0,0 4.677,3.259 11.705,-16.801 8.245,5.744 2.744,-3.937 -12.923,-9.002 z"
             style="fill:#6a40a3;fill-opacity:1;fill-rule:nonzero;stroke:none"
             id="path302" /></g><g
           id="g304"
           transform="translate(148.7452,305.1626)"><path
             d="m 0,0 c 1.978,-4.58 5.496,-6.858 9.007,-5.341 3.546,1.531 4.119,5.783 2.17,10.293 C 9.363,9.151 5.855,11.883 2.239,10.322 -1.341,8.775 -1.948,4.508 0,0 m 16.646,7.518 c 3.302,-7.641 0.701,-14.198 -6.114,-17.143 -6.85,-2.961 -13.158,0.483 -16.029,7.127 -3.005,6.953 -0.775,14.084 6.041,17.029 7.125,3.079 13.32,-0.576 16.102,-7.013"
             style="fill:#6a40a3;fill-opacity:1;fill-rule:nonzero;stroke:none"
             id="path306" /></g><g
           id="g308"
           transform="translate(175.6491,302.1673)"><path
             d="m 0,0 -4.271,24.905 6.577,1.126 6.739,-8.238 c 1.928,-2.371 3.902,-5.227 5.528,-7.839 l 0.074,0.013 c -0.896,3.231 -1.584,6.574 -2.23,10.345 l -1.242,7.241 5.173,0.888 L 20.62,3.534 14.707,2.521 7.739,11.216 c -1.936,2.407 -4.15,5.336 -5.832,8.053 L 1.759,19.245 C 2.514,15.949 3.19,12.452 3.887,8.387 L 5.174,0.886 Z"
             style="fill:#6a40a3;fill-opacity:1;fill-rule:nonzero;stroke:none"
             id="path310" /></g><g
           id="g312"
           transform="translate(221.1401,329.9759)"><path
             d="m 0,0 -2.394,-25.154 -5.673,0.54 2.394,25.155 z"
             style="fill:#6a40a3;fill-opacity:1;fill-rule:nonzero;stroke:none"
             id="path314" /></g><g
           id="g316"
           transform="translate(239.0077,326.6126)"><path
             d="M 0,0 5.514,-1.439 1.481,-16.894 c -1.817,-6.965 -5.789,-8.525 -11.122,-7.133 -1.305,0.341 -2.918,0.994 -3.912,1.642 l 1.782,4.301 c 0.694,-0.454 1.627,-0.891 2.716,-1.175 2.321,-0.605 4.048,0.068 5.032,3.841 z"
             style="fill:#6a40a3;fill-opacity:1;fill-rule:nonzero;stroke:none"
             id="path318" /></g><g
           id="g320"
           transform="translate(249.237,303.0462)"><path
             d="m 0,0 c 0.988,-1.377 2.781,-3.157 4.958,-4.247 2.346,-1.175 4.074,-0.826 4.812,0.649 0.707,1.408 0.037,2.75 -2.208,5.049 -3.081,3.221 -4.52,6.542 -2.873,9.827 1.931,3.854 6.644,5.14 11.939,2.486 2.581,-1.293 4.173,-2.72 5.194,-4.029 L 18.633,6.218 C 17.98,7.091 16.657,8.55 14.479,9.642 12.266,10.751 10.673,10.249 10.102,9.11 9.38,7.669 10.301,6.41 12.695,3.827 15.945,0.353 16.747,-2.651 15.15,-5.834 13.253,-9.62 8.757,-11.393 2.557,-8.285 c -2.58,1.294 -4.775,3.274 -5.695,4.615 z"
             style="fill:#6a40a3;fill-opacity:1;fill-rule:nonzero;stroke:none"
             id="path322" /></g><g
           id="g324"
           transform="translate(283.9221,305.493)"><path
             d="m 0,0 4.296,-3.691 -7.288,-8.478 0.058,-0.048 c 1.063,0.373 2.104,0.665 3.146,0.955 l 9.801,2.656 5.348,-4.598 -13.362,-2.71 -2.805,-16.731 -5.036,4.328 2.393,12.337 -3.357,-0.625 -5.379,-6.258 -4.296,3.692 z"
             style="fill:#6a40a3;fill-opacity:1;fill-rule:nonzero;stroke:none"
             id="path326" /></g><g
           id="g328"
           transform="translate(299.4284,272.3383)"><path
             d="m 0,0 c -4.085,-2.863 -5.607,-6.769 -3.413,-9.901 2.217,-3.163 6.496,-2.868 10.52,-0.048 3.747,2.624 5.715,6.614 3.455,9.839 C 8.325,3.083 4.023,2.818 0,0 m 10.725,-14.788 c -6.819,-4.776 -13.766,-3.552 -18.027,2.529 -4.281,6.113 -2.183,12.986 3.745,17.139 6.204,4.346 13.64,3.602 17.901,-2.479 4.454,-6.358 2.124,-13.165 -3.619,-17.189"
             style="fill:#6a40a3;fill-opacity:1;fill-rule:nonzero;stroke:none"
             id="path330" /></g><g
           id="g332"
           transform="translate(328.5143,247.3341)"><path
             d="m 0,0 -13.485,-5.37 c -4.076,-1.624 -5.508,-4.01 -4.439,-6.692 1.11,-2.788 3.672,-3.544 7.853,-1.879 l 13.485,5.37 2.108,-5.297 -13.171,-5.244 c -7.247,-2.885 -12.153,-0.601 -14.594,5.531 -2.359,5.923 -0.422,10.691 7.033,13.66 l 13.101,5.217 z"
             style="fill:#6a40a3;fill-opacity:1;fill-rule:nonzero;stroke:none"
             id="path334" /></g><g
           id="g336"
           transform="translate(318.3694,210.6016)"><path
             d="m 0,0 c -0.016,-0.499 0.143,-1.309 0.274,-1.971 0.972,-5.121 4.429,-7.916 10.353,-6.748 5.15,1.015 7.277,4.568 6.32,9.426 -0.241,1.214 -0.517,2.038 -0.722,2.496 z m 19.095,9.578 c 0.737,-1.995 1.488,-4.636 2.039,-7.433 0.937,-4.747 0.664,-8.01 -0.638,-10.715 -1.405,-2.952 -4.139,-5.174 -8.517,-6.036 -4.746,-0.937 -8.361,0.146 -10.849,2.102 -2.687,2.183 -4.509,5.991 -5.467,10.848 -0.573,2.906 -0.802,5.039 -0.887,6.437 z"
             style="fill:#6a40a3;fill-opacity:1;fill-rule:nonzero;stroke:none"
             id="path338" /></g></g></g></g></svg>
