<?xml version="1.0" encoding="utf-8"?>
<!-- Generator: Adobe Illustrator 27.0.0, SVG Export Plug-In . SVG Version: 6.00 Build 0)  -->
<svg version="1.1" id="Layer_1" xmlns="http://www.w3.org/2000/svg" xmlns:xlink="http://www.w3.org/1999/xlink" x="0px" y="0px"
	 viewBox="0 0 399.5 219.7" style="enable-background:new 0 0 399.5 219.7;" xml:space="preserve">
<style type="text/css">
	.st0{fill:#FFFFFF;}
</style>
<path class="st0" d="M212.6,106.3L106.3,0L0,106.3h35.4v99.2c0,7.8,6.3,14.2,14.2,14.2H163c7.8,0,14.2-6.3,14.2-14.2v-99.2
	L212.6,106.3L212.6,106.3z"/>
<path class="st0" d="M231.5,154c-0.1-3.1-1.3-7.6-5.2-7.6c-4.3,0-5.7,3.9-6.1,7.6H231.5L231.5,154z M220,158
	c-0.1,3.9,1.6,8.5,6.3,8.5c2.7,0,4.7-1.9,5.1-4.5h6.6c-0.5,6.1-6.5,9-12,9c-1.8,0-4.1-0.6-5.7-1.3c-1.8-0.8-3-1.9-4.2-3.5
	c-2.2-2.8-3-6.4-3-9.9c0-7.6,4.3-14.2,12.6-14.2c3.7,0,7.1,1,9.7,3.7c2.2,2.4,2.9,6.3,3.1,9.4c0.1,0.8,0.2,1.6,0.1,2.4
	c0,0.2-0.1,0.3-0.1,0.4L220,158L220,158z"/>
<path class="st0" d="M251.5,147.3c1.8-3.5,4.4-5.2,8.3-5.2c4.2,0,7.4,2.6,8.1,5.2c0.4,1.4,0.4,2.5,0.4,3.7v14.9h3.4v4.4h-13.5v-4.4
	h3.2v-12.4c0-1.3,0.1-2.4-0.4-3.8c-0.5-1.7-1.9-2.9-3.7-2.9c-5,0-5.3,4.7-5.3,8.5v10.5h3.3v4.4h-13.8v-4.4h3.6v-18.7h-3.6v-4.4h10
	L251.5,147.3L251.5,147.3z"/>
<path class="st0" d="M292.8,154c-0.1-3.1-1.3-7.6-5.2-7.6c-4.3,0-5.7,3.9-6,7.6H292.8L292.8,154z M281.4,158
	c-0.1,3.9,1.6,8.5,6.3,8.5c2.7,0,4.7-1.9,5.1-4.5h6.6c-0.5,6.1-6.5,9-12.1,9c-1.8,0-4.1-0.6-5.7-1.3c-1.8-0.8-3-1.9-4.2-3.5
	c-2.2-2.8-3-6.4-3-9.9c0-7.6,4.3-14.2,12.6-14.2c3.7,0,7.1,1,9.7,3.7c2.2,2.4,2.9,6.3,3.1,9.4c0.1,0.8,0.2,1.6,0.1,2.4
	c0,0.2-0.1,0.3-0.1,0.4L281.4,158L281.4,158z"/>
<path class="st0" d="M312.9,148.6c1.1-4.8,4.3-6.8,9.2-6.3v6.7c-0.8-0.2-1.6-0.4-2.4-0.4c-2.5,0-4.8,1.6-5.6,3.9
	c-0.7,1.9-0.7,4.4-0.7,6.3v7.1h4.4v4.4h-14.9v-4.4h3.6v-18.7h-3.6v-4.4h10.1L312.9,148.6L312.9,148.6z"/>
<g>
	<path class="st0" d="M367.5,132.3v6.3h-6.9v-6.3H367.5L367.5,132.3z M357,170.3v-4.4h3.7v-18.7H357v-4.4h10.6v23.1h3.2v4.4
		L357,170.3L357,170.3z"/>
	<path class="st0" d="M392.4,154c-0.1-3.1-1.3-7.6-5.2-7.6c-4.3,0-5.7,3.9-6.1,7.6H392.4L392.4,154z M381,158
		c-0.1,3.9,1.6,8.5,6.3,8.5c2.7,0,4.7-1.9,5.1-4.5h6.6c-0.5,6.1-6.5,9-12.1,9c-1.8,0-4.1-0.6-5.7-1.3c-1.8-0.8-3-1.9-4.2-3.5
		c-2.2-2.8-3-6.4-3-9.9c0-7.6,4.3-14.2,12.6-14.2c3.7,0,7.1,1,9.7,3.7c2.2,2.4,2.9,6.3,3.1,9.4c0.1,0.8,0.2,1.6,0.1,2.4
		c0,0.2-0.1,0.3-0.1,0.4L381,158L381,158z"/>
</g>
<path class="st0" d="M224.8,190.4c-1.2,2.3-1.7,4.5-1.7,6.7c0,3.9,1.5,9.6,6.4,9.6c5,0,6.2-5.4,6.2-9.4c0-3.9-0.8-10.3-5.9-10.3
	C227.5,187.1,225.7,188.6,224.8,190.4L224.8,190.4z M223.2,187.9c1.9-3.7,4.9-5.3,8.1-5.3c4.2,0,7,1.7,9.5,5.3c1.1,1.6,2,5,2,8.7
	c0,4.1-0.4,6.7-2.6,10.3c-1.8,2.9-5.5,4.4-8.8,4.4c-3.1,0-5.7-1.3-7.8-4.8v8.1h3.9v4.4h-14.4v-4.4h3.6v-27.1h-3.6v-4.4h10.1V187.9
	L223.2,187.9z"/>
<path class="st0" d="M259.8,198c-3.5,0-6.7,0.8-6.7,5c0,2.1,1.4,3.8,3.6,3.8c5,0,6.2-4.8,6.4-8.8H259.8L259.8,198z M263.6,206.4
	c-1.6,3.5-4.9,5-8.6,5c-3.8,0-7.6-2.2-8.2-5c-0.6-1.8-0.6-2.7-0.6-3.6c0-2.3,0.9-4.7,2.7-6.2c1.3-1.2,4.4-2.3,6.3-2.4
	c1.3-0.1,2.7-0.3,4-0.3c1.2,0,2.5,0.2,3.7,0.2c0.4-3.3-0.1-7.4-4.4-7.4c-3,0-4.4,2.1-4.4,5h-6.8c0.2-6.7,5.2-9.1,11.2-9.1
	c4.3,0,8.3,1.1,10.2,5.4c0.4,0.9,0.5,1.5,0.7,2.6c0.2,1.2,0.2,2.3,0.2,3.5v12.4h3.6v4.3h-9.5L263.6,206.4L263.6,206.4z"/>
<polygon class="st0" points="276.1,210.8 276.1,206.4 279.6,206.4 279.6,179.4 276.1,179.4 276.1,175 286.5,175 286.5,206.4 
	289.8,206.4 289.8,210.8 "/>
<path class="st0" d="M311.6,194.4c-0.1-3.1-1.3-7.6-5.2-7.6c-4.3,0-5.7,3.9-6.1,7.6H311.6L311.6,194.4z M300.1,198.4
	c-0.1,3.9,1.6,8.5,6.3,8.5c2.7,0,4.7-1.9,5.1-4.5h6.6c-0.5,6.1-6.5,9-12.1,9c-1.8,0-4.1-0.6-5.7-1.3c-1.8-0.8-3-1.9-4.2-3.5
	c-2.2-2.8-3-6.4-3-9.9c0-7.6,4.3-14.2,12.6-14.2c3.7,0,7.1,1,9.7,3.7c2.2,2.4,2.9,6.3,3.1,9.4c0.1,0.8,0.2,1.6,0.1,2.4
	c0,0.2-0.1,0.3-0.1,0.4L300.1,198.4L300.1,198.4z"/>
<polygon class="st0" points="332.6,183.2 322.1,183.2 322.1,187.6 325.7,187.6 325.7,206.4 322.1,206.4 322.1,210.8 335.8,210.8 
	335.8,206.4 332.6,206.4 "/>
<path class="st0" d="M355.5,192.1c-0.3-2.9-1.4-5.4-4.7-5.4c-2.2,0-4.3,1-4.3,3.5c0,0.9,0.3,1.4,0.8,2.1c0.5,0.4,1,0.5,1.6,0.8
	c2.9,0.8,8.5,1.2,10.6,3.8c1.4,1.7,1.9,3.3,1.9,5.5c0.1,1.6-0.7,4.1-1.7,5.5c-1.2,1.7-4.2,3.4-8.1,3.4c-2.6,0-5.4-1.2-6.8-3.4v2.8
	h-5v-9.6h5.4c0.2,3.4,1.7,5.8,5.4,5.8c1.9,0,3.9-1.3,3.9-3.4c0-1-0.3-2.3-1.3-2.8c-3.1-1.5-6.9-1.1-9.8-3.1
	c-2.5-1.8-3.5-4.1-3.5-7.2c-0.3-2.3,1.1-3.9,1.8-5c1-1.4,4.4-2.9,7.7-2.9c2.4,0,5.1,1,6.5,2.9v-2.3h4.9v8.8L355.5,192.1L355.5,192.1
	L355.5,192.1z"/>
<path class="st0" d="M337.2,165.5c-4,0-5.9-4.4-5.9-9.5s2.1-9.3,6.2-9.3c3.4,0,6.2,4.2,6.2,9.3S341.6,165.5,337.2,165.5L337.2,165.5
	z M343.9,142.8v3.6c-2-2.9-5.1-4.3-8.6-4.3c-3.9,0-6.7,1.6-8.6,4.3c-1.7,2.3-2.5,5.7-2.5,9.2c0,2.8,0.3,5.9,1.6,8.5
	c2.1,4,5.2,5.9,9.7,5.9c3.8,0,6.4-1.3,8.2-4.8c-0.1,2.2,0.2,4.4-0.5,6.5c-0.8,2.4-3.7,3.4-5.9,3.4c-1.3,0-2.6-0.3-3.7-1.2
	c-0.4-0.3-0.8-1.2-0.8-1.2h-6.9v6.3h6.3c0,0,0.2,0,0.6,0h5c3.2,0,6.2-0.2,8.9-2c3.3-2.2,4-5.1,4-8.8v-21.1h3.6v-4.4L343.9,142.8
	L343.9,142.8z"/>
</svg>
