<svg xmlns="http://www.w3.org/2000/svg" width="295.833" height="53.513" viewBox="0 0 295.833 53.513">
  <g id="Laag_2" data-name="Laag 2" transform="translate(11 87.799)">
    <g id="Laag_1" data-name="Laag 1" transform="translate(-11 -87.799)">
      <path id="Path_1" data-name="Path 1" d="M238.233,14.226c-.773-.773.032-2.089,1.015-2.562a39.256,39.256,0,0,0,5.139-2.685c.671-.446.671-1.343-.924-.709L228.3,13.581a1.219,1.219,0,0,1-1.375-.934,1.181,1.181,0,0,1,.72-1.31l13.619-5.623c.22-.107.446-.215.682-.311l12-4.908A5.338,5.338,0,0,1,255.1.172a5.161,5.161,0,0,1,5.537,2.014l2.32.537a.537.537,0,0,1,.537.371h0a.537.537,0,0,1-.188.607L261.61,5.037v.811a13.646,13.646,0,0,1-3.222,8.528,12.083,12.083,0,0,1-5.118,3.416l2.089,3.91a.886.886,0,0,1-.435,1.165.918.918,0,0,1-.36.075.87.87,0,0,1-.8-.537L251.5,18.259a12.492,12.492,0,0,1-1.676.183l1.5,3.271a.875.875,0,0,1-.435,1.16h0a.838.838,0,0,1-.36.081.886.886,0,0,1-.8-.537L247.8,18.323a17.663,17.663,0,0,1-4.7-1.165.566.566,0,0,1,.048-1.015,19.569,19.569,0,0,0,6.681-4.4c.827-.773-.29-1.89-1.165-.881-2.046,1.745-5.327,2.927-7.846,3.684a2.585,2.585,0,0,1-2.578-.344Z" transform="translate(-105.05 0)" fill="#fff"/>
      <path id="Path_2" data-name="Path 2" d="M37,40.81a10.841,10.841,0,0,0-9.36,4.678c-1.4-3.287-4.35-4.678-7.916-4.678-5.07,0-8.447,2.449-10.139,5.472L0,41.03V71.571H11.143V50.842a4.062,4.062,0,0,1,3.679-2.621c1.45,0,2.454.725,2.454,3.287V71.571H28.42V50.842A4.056,4.056,0,0,1,32.1,48.221c1.45,0,2.449.725,2.449,3.287V71.571H45.7V50.042C45.7,43.431,42.13,40.81,37,40.81Z" transform="translate(0 -18.894)" fill="#fff"/>
      <path id="Path_3" data-name="Path 3" d="M106.224,40.81c-9.081,0-15.434,5.574-15.434,15.934S95.806,72.4,105.225,72.4c7.518,0,13.592-3.222,13.592-12.481-2.057,3.346-5.29,4.624-9.129,4.624-4.3,0-6.407-1.949-6.981-6.686h16.272C121.159,44.376,114.532,40.81,106.224,40.81Zm-3.673,13.528c.054-5.795,1.611-8.8,3.759-8.8,1.9,0,2.733,1.5,2.787,7.078Z" transform="translate(-42.033 -18.894)" fill="#fff"/>
      <path id="Path_4" data-name="Path 4" d="M167.9,34.131a10.8,10.8,0,0,0-5.628-1.391c-8.528,0-14.21,6.187-14.21,16.492,0,10.144,4.833,15.1,13.152,15.1,5.182,0,8.41-2,10.2-4.4l7.964,3.571V23.38H167.9Zm0,23.3a4.511,4.511,0,0,1-3.346,1.611c-2.895,0-4.737-2.728-4.737-9.806,0-7.465,1.949-11.815,5.3-11.815a3.292,3.292,0,0,1,2.787,1.611Z" transform="translate(-68.548 -10.824)" fill="#fff"/>
      <rect id="Rectangle_2" data-name="Rectangle 2" width="11.143" height="29.923" transform="translate(115.96 22.754)" fill="#fff"/>
      <path id="Path_5" data-name="Path 5" d="M258.685,40.81a39.273,39.273,0,0,0-12.148,1.729V54.408l8.694-8.92h.725c2.954,0,4.57,1.074,4.57,3.346,0,3.007-2.734,4.237-6.686,5.515-7.47,2.288-10.257,5.129-10.311,10.144,0,4.345,2.562,7.857,8.3,7.857a12.419,12.419,0,0,0,9.806-4.4l9.7,3.577-.07-19.693C271.225,42.759,266.434,40.81,258.685,40.81Zm1.5,24.166a4.908,4.908,0,0,1-2.895,1c-1.842,0-2.733-1-2.733-2.9a6.04,6.04,0,0,1,2.954-5.456,31.678,31.678,0,0,0,2.685-2.175Z" transform="translate(-112.748 -18.894)" fill="#fff"/>
      <path id="Path_6" data-name="Path 6" d="M322.712,32.736a12.926,12.926,0,0,0-7.969,2.449V23.37H303.61V63.491l8.19-3.512a10.131,10.131,0,0,0,8.807,4.345c8.748,0,14.317-6.407,14.317-17.217C334.924,36.694,329.409,32.736,322.712,32.736Zm-4.57,26.357c-1.9,0-3.007-1.729-3.4-4.4V41.151c.779-2.008,2.229-3.287,4.124-3.287,2.562,0,4.345,2.449,4.345,9.468.038,7.69-1.939,11.761-5.059,11.761Z" transform="translate(-140.563 -10.82)" fill="#fff"/>
      <rect id="Rectangle_3" data-name="Rectangle 3" width="11.143" height="29.923" transform="translate(197.933 22.754)" fill="#fff"/>
      <path id="Path_7" data-name="Path 7" d="M409.509,45.367l-9.919-4.457V71.617h11.143V51.833a18.339,18.339,0,0,1,1.611-3.066l7.518,6.745V41.694a9.575,9.575,0,0,0-3.9-.784C412.908,40.909,410.787,42.805,409.509,45.367Z" transform="translate(-184.999 -18.94)" fill="#fff"/>
      <path id="Path_8" data-name="Path 8" d="M460.832,23.38V34.121A10.8,10.8,0,0,0,455.2,32.73c-8.528,0-14.2,6.187-14.2,16.492,0,10.144,4.833,15.1,13.146,15.1,5.182,0,8.415-2,10.2-4.4l7.969,3.571V23.38Zm0,34.048a4.511,4.511,0,0,1-3.346,1.611c-2.9,0-4.737-2.728-4.737-9.806,0-7.465,1.949-11.815,5.3-11.815a3.292,3.292,0,0,1,2.787,1.611Z" transform="translate(-204.171 -10.824)" fill="#fff"/>
      <path id="Path_9" data-name="Path 9" d="M520.125,52.012c-4.4-1-6.015-1.955-6.015-3.958,0-1.729,1.337-2.787,4.57-2.787h.107l8.856,7.411V42.034a30.992,30.992,0,0,0-9.414-1.224c-9.194,0-13.039,4.012-13.039,9.919s3.62,8.915,9.581,10.139c4.833,1,6.02,1.729,6.02,3.791,0,2.148-2.062,3.174-5.129,3.174h-.5l-9.291-7.91V71.292A41.662,41.662,0,0,0,515.957,72.4c9.7,0,13.764-3.759,13.764-10.365C529.721,55.745,525.989,53.264,520.125,52.012Z" transform="translate(-233.889 -18.894)" fill="#fff"/>
    </g>
  </g>
</svg>
