<?xml version="1.0" encoding="utf-8"?>
<!-- Generator: Adobe Illustrator 27.0.0, SVG Export Plug-In . SVG Version: 6.00 Build 0)  -->
<svg version="1.1" id="Layer_1" xmlns="http://www.w3.org/2000/svg" xmlns:xlink="http://www.w3.org/1999/xlink" x="0px" y="0px"
	 viewBox="0 0 581.1 193.3" style="enable-background:new 0 0 581.1 193.3;" xml:space="preserve">
<style type="text/css">
	.st0{fill:#FFFFFF;}
</style>
<g>
	<g>
		<g>
			<g>
				<g>
					<path class="st0" d="M167.1,82.6V0h22.9v82.4C190.1,82.6,167.1,82.6,167.1,82.6z"/>
					<path class="st0" d="M255.5,18.4h-31.3v17.5h23.1v17.5h-23.1V64h31.3v18.6h-54.2V0h54.2V18.4z"/>
					<path class="st0" d="M320.1,0h21.5v82.4h-9.1l-44.9-40.9v40.9h-21.8V0h9.1l45.3,41.5V0L320.1,0z"/>
					<path class="st0" d="M384.9,0c29.5,0,46.9,13.3,46.9,40c0,25.6-14.6,42.6-46.7,42.6h-32.9V0H384.9z M385.2,64
						c16,0,23.3-8,23.3-22.7c0-12.5-7.1-22.9-23.5-22.9h-10V64H385.2z"/>
					<path class="st0" d="M494.9,18.4h-31.3v17.5h23.1v17.5h-23.1V64h31.3v18.6h-54.2V0h54.2V18.4z"/>
					<path class="st0" d="M559.6,0h21.5v82.4H572l-44.9-40.9v40.9h-21.8V0h9.1l45.3,41.5L559.6,0L559.6,0z"/>
				</g>
			</g>
		</g>
		<path class="st0" d="M139,56.6c11.1-4.2,18-12.9,18-27.3c0-18.6-11.3-29.1-38.9-29.1H90v82.4h22.9V59.5h2.4l17.5,22.9h27.3
			L139,56.6z M117.7,41.7h-4.7V18.6h6c10.9,0,14.6,4.4,14.6,11.8C133.5,38.7,128.6,41.7,117.7,41.7z"/>
	</g>
	<g>
		<polygon class="st0" points="62,0 42.7,44.4 22.9,0 0,0 38.4,82 46.9,82 85.1,0 		"/>
	</g>
</g>
<g>
	<g>
		<g>
			<path class="st0" d="M103.7,173h25.8v18.6H80.8V100h22.9V173z"/>
			<path class="st0" d="M128.4,140.4c0-28.2,16.2-42.2,42.2-42.2c26.2,0,42.6,14.2,42.6,41.7c0,28-16.9,44.2-42.9,44.2
				C145.1,184.1,128.4,169.1,128.4,140.4z M189.3,140.2c0-15.8-6.7-23.3-18.7-23.3c-12,0-18.7,7.5-18.7,23.3
				c0,16.6,7.1,24.7,18.6,24.7C182.2,165.1,189.3,156.6,189.3,140.2z"/>
			<path class="st0" d="M287.6,99.9v18.4h-24.2v64h-22.9v-64h-24.2V99.9H287.6z"/>
			<path class="st0" d="M351.6,118.2h-31.3v17.5h23.1v17.5h-23.1v10.7h31.3v18.6h-54.2V100h54.2V118.2z"/>
		</g>
	</g>
	<path class="st0" d="M410.7,156.4c11.1-4.2,18-12.9,18-27.3c0-18.6-11.3-29.1-38.9-29.1h-28v82.4h22.9v-22.9h2.4l17.5,22.9h27.3
		L410.7,156.4z M389.4,141.5h-4.7v-23.1h6c10.9,0,14.6,4.4,14.6,11.8C405.2,138.6,400.3,141.5,389.4,141.5z"/>
	<path class="st0" d="M438.5,182.4V100h22.9v82.4H438.5z"/>
	<path class="st0" d="M484.3,99.9h22.9v60.4c0,24.2-16.6,33.1-39.5,33.1l-0.7-18.6c12.4,0,17.3-5.5,17.3-18.6V99.9L484.3,99.9z"/>
</g>
</svg>
