<?xml version="1.0" encoding="utf-8"?>
<!-- Generator: Adobe Illustrator 27.0.0, SVG Export Plug-In . SVG Version: 6.00 Build 0)  -->
<svg version="1.1" id="Laag_1" xmlns="http://www.w3.org/2000/svg" xmlns:xlink="http://www.w3.org/1999/xlink" x="0px" y="0px"
	 viewBox="0 0 480.7 117.4" style="enable-background:new 0 0 480.7 117.4;" xml:space="preserve">
<style type="text/css">
	.st0{fill:#FFFFFF;}
</style>
<path class="st0" d="M268.6,54.3c-2.7-4.4-7.8-6.3-20.4-6.3h-67.6c-1.1,0-2.1,0.7-2.5,1.7L154.4,115c-0.3,0.6,0,1.3,0.6,1.6
	c0.2,0.1,0.4,0.1,0.7,0.1h15.2c1.1-0.1,2.1-0.7,2.5-1.7l18.4-50.6c0.5-1.2,1.7-1.9,3-1.7h16.1c0.7-0.1,1.3,0.4,1.3,1.1
	c0,0.2,0,0.5-0.1,0.7L193.6,115c-0.3,0.6,0,1.3,0.6,1.6c0.2,0.1,0.4,0.1,0.7,0.1H210c1.1-0.1,2.1-0.7,2.5-1.7l18.4-50.6
	c0.4-1.1,1.4-1.8,2.5-1.7h5c7.2,0,10.1,0.3,11.4,2.4c1.5,2.4,0.2,5.3-1.4,9.9l-2.5,6.9L233.8,115c-0.3,0.6,0,1.3,0.6,1.6
	c0.2,0.1,0.4,0.1,0.7,0.1h15.2c1.1-0.1,2.1-0.7,2.5-1.7L268,73C270.8,65.3,271.2,58.6,268.6,54.3z M350.2,48H335
	c-1.1,0-2.1,0.7-2.5,1.7l-18.4,50.6c-0.4,1-1.4,1.7-2.5,1.7h-15.9c-3.3,0-5.4-1.2-6.1-3.5c-0.5-1.6,0.2-4.6,0.2-4.6
	c0.2-1,0.7-2.6,1.1-3.5l14.8-40.7c0.3-0.6,0-1.3-0.6-1.6c-0.2-0.1-0.4-0.1-0.7-0.1h-15.2c-1.1,0-2.1,0.7-2.5,1.7l-14.8,40.6
	c-3.5,9.6-3.6,16.4-0.4,20.9c1.5,2.1,3.8,3.6,6.3,4.3c2.8,0.8,10.2,1.1,10.2,1.1c1,0,2.7,0.1,3.7,0.1h33.4c1.1-0.1,2.1-0.7,2.5-1.7
	l23.7-65.2c0.3-0.6,0-1.3-0.6-1.6C350.7,48,350.5,48,350.2,48L350.2,48z M472.6,49.7c-4-1.4-16-1.7-16-1.7c-1,0-2.7,0-3.7,0h-28.2
	c-1.1,0-2.1,0.7-2.5,1.7l-4.1,11.2c-0.3,0.6,0,1.3,0.6,1.6c0.2,0.1,0.4,0.1,0.7,0.1h28.8l1.7,0c7.2,0,9.7,0.3,10.9,2.4
	c1,1.7,0.7,3.6-0.1,6.3l-0.9,2.4c-0.3,0.9-1.1,1.3-2.4,1.3h-23.7c-4.2,0-10.6,0.6-14.1,1.7c-8.3,2.5-15.9,10.4-19.3,19.8
	c-2.6,7.2-1.8,13.4,2.3,16.9c0.7,0.7,1.6,1.3,2.5,1.7c2.9,1.3,16.3,1.6,16.3,1.6c1,0,2.7,0,3.7,0h36.1c1.1-0.1,2.1-0.7,2.5-1.7
	l13.4-36.9c2.7-7.3,3.4-10,3.5-14C480.9,57,478,51.7,472.6,49.7z M453.3,91.4l-3.2,8.9c-0.4,1-1.4,1.7-2.5,1.7h-20
	c-7.3,0-9.4-1.7-7.8-6.1c1-2.9,3.3-5.1,6.3-5.9c1.7-0.4,1.7-0.4,6.1-0.4h20c0.7-0.1,1.3,0.4,1.3,1.1
	C453.5,90.9,453.4,91.2,453.3,91.4z M392.4,102h-11.6c-4.7,0-6.5-0.8-7.2-3.4c-0.6-2.1,1.9-9.2,1.9-9.2c0.3-1,0.9-2.5,1.2-3.5
	l7.8-21.5c0.4-1,1.4-1.7,2.5-1.7h16c1.1-0.1,2.1-0.7,2.5-1.7l4.1-11.2c0.3-0.6,0-1.3-0.6-1.6c-0.2-0.1-0.4-0.1-0.7-0.1h-16
	c-0.7,0.1-1.3-0.4-1.3-1.1c0-0.2,0-0.5,0.1-0.7l8-21.9c0.3-0.6,0-1.3-0.6-1.6c-0.2-0.1-0.4-0.1-0.7-0.1h-15.2
	c-1.1,0-2.1,0.7-2.5,1.7l-8,21.9c-0.4,1-1.4,1.7-2.5,1.7h-8.3c-1.1-0.1-2.2,0.6-2.5,1.7l-4.1,11.2c-0.3,0.6,0,1.3,0.6,1.6
	c0.2,0.1,0.4,0.1,0.7,0.1h8.3c0.7-0.1,1.3,0.4,1.3,1.1c0,0.2,0,0.5-0.1,0.7l-9.6,26.5c-4.1,11.1-4.5,16.2-1.4,20.6
	c1.3,2,3.3,3.5,5.7,4.1c2.4,0.6,4.8,0.9,7.2,1c1,0.1,2.7,0.1,3.7,0.1H387c1.1-0.1,2.1-0.7,2.5-1.7l4.1-11.2c0.3-0.6,0-1.3-0.6-1.6
	C392.8,102.1,392.6,102,392.4,102z"/>
<path class="st0" d="M107.9,2.6c-3.3-1.9-7-2.8-10.7-2.6C90.3,0.1,85.1,2.7,80,5.4s-8.7,5.3-9.7,5.3c-0.2,0-0.5-0.1-0.6-0.3
	c-0.1-0.3-0.1-0.6-0.1-0.9c0-0.9,0.1-1.8,0.3-2.7c0.2-1.2,0.3-2.4,0.3-3.6c0-0.9-0.6-1.8-1.4-2.1c-1.3-0.5-2.6-0.7-4-0.6
	C56.4,0.8,48,1.9,39.7,3.8c-9.3,2.1-17.3,5-17.2,8.5c0,1,0.7,1.9,1.6,2.2c1.2,0.4,2.5,0.6,3.8,0.6c1.5-0.1,3.1,0.1,4.5,0.5
	c0.8,0.3,1.4,1.1,1.5,1.9c0.2,0.9,0.2,1.8-0.1,2.6c-0.2,1.2-1,3.2-1.9,5.8c0,0-31.3,86.4-31.6,87.3c-0.3,0.7-0.4,1.5-0.4,2.3
	c0,0.5,0.2,1,0.5,1.3c0.6,0.4,1.3,0.6,2,0.6h27.2c0.8,0,1.6-0.2,2.2-0.6c0.5-0.3,0.9-0.8,1-1.4l32.7-90.5c0.7-1.6,1.1-2.7,2.4-3.6
	s3.2-1.4,6.1-1.4c2-0.2,4,0.3,5.7,1.3c1.3,0.9,2,2.3,2,3.9c0.1,3.8-12.5,39.2-13.1,41c-0.8,2.3-1.3,4.6-1.5,7c-0.2,3,0.3,6,1.7,8.7
	c1.5,2.7,3.8,5,6.6,6.4c3.4,1.7,7.2,2.3,11,1.9c1.2,0,2.4-0.3,3.5-0.6l23.6-65c0.5-1.7,0.9-3.4,1.2-5.2c0.5-3.3,0.7-7.2-0.6-9.9
	C112.7,6.6,110.6,4.2,107.9,2.6z"/>
<path class="st0" d="M169.3,7.2c0-1-0.5-1.8-1.4-2.3c-1.2-0.6-2.5-1-3.9-1c-8-0.4-16.1,0-24.1,1.1c-9.4,1.2-17.7,3.5-17.9,6.9
	c-0.1,1,0.5,1.9,1.4,2.4c1.2,0.6,2.4,0.9,3.7,0.9c1.5,0,3,0.3,4.5,0.9c0.8,0.3,1.3,1.2,1.2,2c-0.1,0.9-0.3,1.8-0.6,2.6
	c-0.5,1.8-0.8,2.6-1.3,4.2c-11.5,30.7-10.5,28.4-12.5,33.3c-0.3,0.7-0.5,1.5-0.6,2.2c-0.1,0.5,0.1,1,0.4,1.4
	c0.5,0.5,1.2,0.7,1.9,0.7l26.5,0c0.8,0.1,1.6-0.1,2.3-0.4c0.5-0.3,0.9-0.8,1.1-1.4l18.5-50.1C169,9.5,169.2,8.3,169.3,7.2z"/>
</svg>
