<?xml version="1.0" encoding="utf-8"?>
<!-- Generator: Adobe Illustrator 27.0.0, SVG Export Plug-In . SVG Version: 6.00 Build 0)  -->
<svg version="1.1" id="svg9219" xmlns:svg="http://www.w3.org/2000/svg"
	 xmlns="http://www.w3.org/2000/svg" xmlns:xlink="http://www.w3.org/1999/xlink" x="0px" y="0px" viewBox="0 0 256.1 53.4"
	 style="enable-background:new 0 0 256.1 53.4;" xml:space="preserve">
<style type="text/css">
	.st0{fill:#FFFFFF;stroke:#FFFFFF;}
	.st1{fill:#FFFFFF;}
</style>
<path id="path6290" class="st0" d="M255.6,10.6v33.7h-7.4V29.6h-15.1v14.7h-7.4V10.6h7.4v12.8h15.1V10.6
	C248.2,10.6,255.6,10.6,255.6,10.6z M193.3,16.7h9.6v27.6h7.4V16.7h9.6v-6.1h-26.7V16.7z M144.1,30.9c0,5.9-3,8.1-7.3,8.1
	c-4.3,0-7.3-2.2-7.3-8.1V20.2H122V31c0,7.9,4.5,14.1,14.8,14.1c10.4,0,14.8-6.2,14.8-14.1V20.2h-7.5
	C144.1,20.2,144.1,30.9,144.1,30.9z M122,16.1h7.5v-5.4H122C122,10.6,122,16.1,122,16.1z M144.1,16.1h7.5v-5.4h-7.5V16.1z
	 M89.4,10.6l-7,24.2l-6.1-24.2h-7.3l9.2,33.7h7.6l7.3-25.1l7.3,25.1h7.7l9.2-33.7h-7.2l-6.1,24.2l-7-24.2
	C97.2,10.6,89.4,10.6,89.4,10.6z M159.8,10.6h16.4c9.4,0,13.2,5.3,13.2,11.1c0,3.9-2.3,7.6-6.6,9.5l7.6,13.1H182l-6.5-11.6H167v11.6
	h-7.2C159.8,44.3,159.8,10.6,159.8,10.6z M167,16.5v10.4h8.4c4.7,0,6.7-2.1,6.7-5.2c0-3.1-2-5.2-6.7-5.2H167z"/>
<path id="path6294" class="st1" d="M48.3,20.8H0V0h20.1v8.1h8.1V0h20.1V20.8z M28.2,45.3v8.1c11.5-2.2,20.1-12.2,20.1-23.5v0v-1H0v1
	v0c0,11.3,8.5,21.4,20.1,23.5v-8.1H28.2z"/>
</svg>
