<svg xmlns="http://www.w3.org/2000/svg" xml:space="preserve" id="Group_13" x="0" y="0" style="enable-background:new 0 0 102.8 30.2" version="1.1" viewBox="0 0 102.8 30.2"><style>.st0{fill:#c2002f}</style><path id="Path_33" d="m96.7 30.2-9.1-9.1-9.1 9.1-6-6 9.1-9.1-9-9.1 6-6 9.1 9.1 9-9.1 6 6-9.1 9.1 9.1 9.1-6 6z" class="st0"/><path id="Path_34" d="m24.2 30.2-9.1-9.1L6 30.2l-6-6 9.1-9.1L0 6l6-6 9.1 9.1L24.2 0l6 6-9.1 9.1 9.1 9.1-6 6z" class="st0"/><path id="Path_35" d="m60.5 30.2-9.1-9.1-9.1 9.1-6-6 9.1-9.1L36.3 6l6-6 9.1 9.1L60.5 0l6 6-9.1 9.1 9.1 9.1-6 6z" class="st0"/></svg>