<?xml version="1.0" encoding="utf-8"?>
<!-- Generator: Adobe Illustrator 26.5.0, SVG Export Plug-In . SVG Version: 6.00 Build 0)  -->
<svg version="1.1" id="Group_13" xmlns="http://www.w3.org/2000/svg" xmlns:xlink="http://www.w3.org/1999/xlink" x="0px" y="0px"
	 viewBox="0 0 30.2 102.7" style="enable-background:new 0 0 30.2 102.7;" xml:space="preserve">
<style type="text/css">
	.st0{fill:#C2002F;}
</style>
<path id="Path_33" class="st0" d="M30.2,6l-9.1,9.1l9.1,9.1l-6,6l-9.1-9.1l-9.1,9l-6-6L9.1,15L0,6l6-6l9.1,9.1L24.2,0L30.2,6z"/>
<path id="Path_34" class="st0" d="M30.2,78.5l-9.1,9.1l9.1,9.1l-6,6l-9.1-9.1L6,102.7l-6-6l9.1-9.1L0,78.5l6-6l9.1,9.1l9.1-9.1
	L30.2,78.5z"/>
<path id="Path_35" class="st0" d="M30.2,42.2l-9.1,9.1l9.1,9.1l-6,6l-9.1-9.1L6,66.4l-6-6l9.1-9.1L0,42.2l6-6l9.1,9.1l9.1-9.1
	L30.2,42.2z"/>
</svg>
