<svg id="nix-18" xmlns="http://www.w3.org/2000/svg" width="90.232" height="24.374" viewBox="0 0 90.232 24.374">
  <path id="Path_28" data-name="Path 28" d="M26.537,0a3.155,3.155,0,0,0-3.425,2.884V21.435a3.155,3.155,0,0,0,3.425,2.885,3.22,3.22,0,0,0,3.468-2.885V2.884A3.22,3.22,0,0,0,26.537,0ZM15.619.149A3.147,3.147,0,0,0,12.2,3.024v7.181L6.35,1.528l-.037-.05c-.033-.044-.065-.086-.1-.129A3.137,3.137,0,0,0,3.641.158l-.1,0a.388.388,0,0,1-.043,0A.653.653,0,0,0,3.415.149,3.146,3.146,0,0,0,0,3.024V21.5a3.144,3.144,0,0,0,3.415,2.872A3.206,3.206,0,0,0,6.867,21.5V14.278l5.564,8.245a2.9,2.9,0,0,0,.885,1.107,3.269,3.269,0,0,0,2.114.737h.08l.037,0c.023,0,.047,0,.071,0A3.208,3.208,0,0,0,19.074,21.5V3.024A3.209,3.209,0,0,0,15.619.149Z" transform="translate(0 0)" fill="#ee712a"/>
  <path id="Path_29" data-name="Path 29" d="M262.141,1.24a4.379,4.379,0,0,0-1.545.281l-4.043,1.453a3.558,3.558,0,0,0-1.841,4.71,3.881,3.881,0,0,0,3.459,2.687h0c.05,0,.1,0,.149,0V21.833a3.555,3.555,0,0,0,3.821,3.313A3.62,3.62,0,0,0,266,21.833V4.554a3.62,3.62,0,0,0-3.856-3.314Zm0,22.34a2.028,2.028,0,0,1-2.255-1.747V8.256l-1.283.473a1.277,1.277,0,0,1-.424.071,2.333,2.333,0,0,1-1.992-1.64,2.031,2.031,0,0,1,.894-2.711l4.057-1.459a2.855,2.855,0,0,1,1-.184,2.077,2.077,0,0,1,2.289,1.748V21.833A2.077,2.077,0,0,1,262.141,23.58Zm22.512-11.814A6.424,6.424,0,0,0,285.8,8.133a7.478,7.478,0,0,0-14.911,0,6.438,6.438,0,0,0,1.145,3.635,7.707,7.707,0,0,0-2.353,5.441c0,4.412,3.886,8,8.662,8s8.663-3.589,8.663-8A7.711,7.711,0,0,0,284.653,11.766Zm-6.309,11.876c-3.913,0-7.1-2.886-7.1-6.434a6.2,6.2,0,0,1,2.343-4.739l.612-.5-.511-.6a4.971,4.971,0,0,1-1.235-3.228,5.919,5.919,0,0,1,11.779,0A4.975,4.975,0,0,1,283,11.361l-.511.606.612.5a6.112,6.112,0,0,1,2.343,4.739C285.44,20.757,282.257,23.643,278.344,23.643Z" transform="translate(-196.775 -0.959)" fill="#fab400"/>
  <path id="Path_30" data-name="Path 30" d="M155.557,15.609a2.484,2.484,0,0,1-.848-1.727,2.454,2.454,0,0,1,.983-2.019l1.8-1.884,1.2-1.293-4.937-5.28a3.509,3.509,0,0,0-2.683-1.466,3.919,3.919,0,0,0-2.555,1.117,3.205,3.205,0,0,0,.037,4.808l5.544,5.961-5.572,6.04a3.323,3.323,0,0,0,.2,4.853,3.18,3.18,0,0,0,2.181.893,4.242,4.242,0,0,0,2.8-1.268l4.966-5.367Z" transform="translate(-114.026 -1.499)" fill="#ee712a"/>
  <path id="Path_31" data-name="Path 31" d="M193.918,2.387l-.02-.019a4.05,4.05,0,0,0-2.621-1.112,3.617,3.617,0,0,0-2.794,1.486l-6.223,6.709-1.8,1.884a2.453,2.453,0,0,0-.983,2.019,2.484,2.484,0,0,0,.848,1.727l8.206,8.867a4.38,4.38,0,0,0,2.909,1.3,3.352,3.352,0,0,0,2.3-.945,3.482,3.482,0,0,0,.194-5.09L188.472,13.3l5.421-5.831a3.383,3.383,0,0,0,.025-5.082Zm-7.276,10.906,6.3,6.825a2.135,2.135,0,0,1-.109,3.2,2.043,2.043,0,0,1-1.392.59,2.978,2.978,0,0,1-1.936-.886l-8.243-8.9-.028-.027a1.144,1.144,0,0,1-.413-.794c-.009-.213.038-.548.552-.98l8.124-8.692.014-.016a2.354,2.354,0,0,1,1.78-1.023,2.668,2.668,0,0,1,1.7.758,2.07,2.07,0,0,1-.059,3.2l-6.281,6.75Z" transform="translate(-138.791 -0.971)" fill="#fab400"/>
</svg>
